<svg width="957" height="289" xmlns="http://www.w3.org/2000/svg" xmlns:xlink="http://www.w3.org/1999/xlink" overflow="hidden"><defs><filter id="fx0" x="-10%" y="-10%" width="120%" height="120%" filterUnits="userSpaceOnUse" primitiveUnits="userSpaceOnUse"><feComponentTransfer color-interpolation-filters="sRGB"><feFuncR type="discrete" tableValues="0 0"/><feFuncG type="discrete" tableValues="0 0"/><feFuncB type="discrete" tableValues="0 0"/><feFuncA type="linear" slope="0.4" intercept="0"/></feComponentTransfer><feGaussianBlur stdDeviation="1.03087 1.03087"/></filter><filter id="fx1" x="-10%" y="-10%" width="120%" height="120%" filterUnits="userSpaceOnUse" primitiveUnits="userSpaceOnUse"><feComponentTransfer color-interpolation-filters="sRGB"><feFuncR type="discrete" tableValues="0 0"/><feFuncG type="discrete" tableValues="0 0"/><feFuncB type="discrete" tableValues="0 0"/><feFuncA type="linear" slope="0.4" intercept="0"/></feComponentTransfer><feGaussianBlur stdDeviation="1.03087 1.03087"/></filter><filter id="fx2" x="-10%" y="-10%" width="120%" height="120%" filterUnits="userSpaceOnUse" primitiveUnits="userSpaceOnUse"><feComponentTransfer color-interpolation-filters="sRGB"><feFuncR type="discrete" tableValues="0 0"/><feFuncG type="discrete" tableValues="0 0"/><feFuncB type="discrete" tableValues="0 0"/><feFuncA type="linear" slope="0.4" intercept="0"/></feComponentTransfer><feGaussianBlur stdDeviation="1.03087 1.03087"/></filter><filter id="fx3" x="-10%" y="-10%" width="120%" height="120%" filterUnits="userSpaceOnUse" primitiveUnits="userSpaceOnUse"><feComponentTransfer color-interpolation-filters="sRGB"><feFuncR type="discrete" tableValues="0 0"/><feFuncG type="discrete" tableValues="0 0"/><feFuncB type="discrete" tableValues="0 0"/><feFuncA type="linear" slope="0.4" intercept="0"/></feComponentTransfer><feGaussianBlur stdDeviation="1.03087 1.03087"/></filter><filter id="fx4" x="-10%" y="-10%" width="120%" height="120%" filterUnits="userSpaceOnUse" primitiveUnits="userSpaceOnUse"><feComponentTransfer color-interpolation-filters="sRGB"><feFuncR type="discrete" tableValues="0 0"/><feFuncG type="discrete" tableValues="0 0"/><feFuncB type="discrete" tableValues="0 0"/><feFuncA type="linear" slope="0.4" intercept="0"/></feComponentTransfer><feGaussianBlur stdDeviation="1.03087 1.03087"/></filter><filter id="fx5" x="-10%" y="-10%" width="120%" height="120%" filterUnits="userSpaceOnUse" primitiveUnits="userSpaceOnUse"><feComponentTransfer color-interpolation-filters="sRGB"><feFuncR type="discrete" tableValues="0 0"/><feFuncG type="discrete" tableValues="0 0"/><feFuncB type="discrete" tableValues="0 0"/><feFuncA type="linear" slope="0.4" intercept="0"/></feComponentTransfer><feGaussianBlur stdDeviation="1.03087 1.03087"/></filter><filter id="fx6" x="-10%" y="-10%" width="120%" height="120%" filterUnits="userSpaceOnUse" primitiveUnits="userSpaceOnUse"><feComponentTransfer color-interpolation-filters="sRGB"><feFuncR type="discrete" tableValues="0 0"/><feFuncG type="discrete" tableValues="0 0"/><feFuncB type="discrete" tableValues="0 0"/><feFuncA type="linear" slope="0.4" intercept="0"/></feComponentTransfer><feGaussianBlur stdDeviation="1.03087 1.03087"/></filter><filter id="fx7" x="-10%" y="-10%" width="120%" height="120%" filterUnits="userSpaceOnUse" primitiveUnits="userSpaceOnUse"><feComponentTransfer color-interpolation-filters="sRGB"><feFuncR type="discrete" tableValues="0 0"/><feFuncG type="discrete" tableValues="0 0"/><feFuncB type="discrete" tableValues="0 0"/><feFuncA type="linear" slope="0.4" intercept="0"/></feComponentTransfer><feGaussianBlur stdDeviation="1.03087 1.03087"/></filter><filter id="fx8" x="-10%" y="-10%" width="120%" height="120%" filterUnits="userSpaceOnUse" primitiveUnits="userSpaceOnUse"><feComponentTransfer color-interpolation-filters="sRGB"><feFuncR type="discrete" tableValues="0 0"/><feFuncG type="discrete" tableValues="0 0"/><feFuncB type="discrete" tableValues="0 0"/><feFuncA type="linear" slope="0.4" intercept="0"/></feComponentTransfer><feGaussianBlur stdDeviation="1.03087 1.03087"/></filter><filter id="fx9" x="-10%" y="-10%" width="120%" height="120%" filterUnits="userSpaceOnUse" primitiveUnits="userSpaceOnUse"><feComponentTransfer color-interpolation-filters="sRGB"><feFuncR type="discrete" tableValues="0 0"/><feFuncG type="discrete" tableValues="0 0"/><feFuncB type="discrete" tableValues="0 0"/><feFuncA type="linear" slope="0.4" intercept="0"/></feComponentTransfer><feGaussianBlur stdDeviation="1.03087 1.03087"/></filter><filter id="fx10" x="-10%" y="-10%" width="120%" height="120%" filterUnits="userSpaceOnUse" primitiveUnits="userSpaceOnUse"><feComponentTransfer color-interpolation-filters="sRGB"><feFuncR type="discrete" tableValues="0 0"/><feFuncG type="discrete" tableValues="0 0"/><feFuncB type="discrete" tableValues="0 0"/><feFuncA type="linear" slope="0.4" intercept="0"/></feComponentTransfer><feGaussianBlur stdDeviation="1.07015 1.07015"/></filter><filter id="fx11" x="-10%" y="-10%" width="120%" height="120%" filterUnits="userSpaceOnUse" primitiveUnits="userSpaceOnUse"><feComponentTransfer color-interpolation-filters="sRGB"><feFuncR type="discrete" tableValues="0 0"/><feFuncG type="discrete" tableValues="0 0"/><feFuncB type="discrete" tableValues="0 0"/><feFuncA type="linear" slope="0.4" intercept="0"/></feComponentTransfer><feGaussianBlur stdDeviation="1.07015 1.07015"/></filter><filter id="fx12" x="-10%" y="-10%" width="120%" height="120%" filterUnits="userSpaceOnUse" primitiveUnits="userSpaceOnUse"><feComponentTransfer color-interpolation-filters="sRGB"><feFuncR type="discrete" tableValues="0 0"/><feFuncG type="discrete" tableValues="0 0"/><feFuncB type="discrete" tableValues="0 0"/><feFuncA type="linear" slope="0.4" intercept="0"/></feComponentTransfer><feGaussianBlur stdDeviation="1.07015 1.07015"/></filter><clipPath id="clip13"><rect x="66" y="162" width="957" height="289"/></clipPath><clipPath id="clip14"><rect x="49" y="40" width="46" height="62"/></clipPath><clipPath id="clip15"><rect x="45" y="44" width="31" height="57"/></clipPath><clipPath id="clip16"><rect x="49" y="40" width="46" height="62"/></clipPath><clipPath id="clip17"><rect x="46" y="39" width="55" height="59"/></clipPath><clipPath id="clip18"><rect x="50" y="42" width="50" height="58"/></clipPath><clipPath id="clip19"><rect x="48" y="45" width="40" height="55"/></clipPath><clipPath id="clip20"><rect x="45" y="45" width="31" height="57"/></clipPath><clipPath id="clip21"><rect x="50" y="43" width="50" height="58"/></clipPath><clipPath id="clip22"><rect x="49" y="41" width="46" height="62"/></clipPath><clipPath id="clip23"><rect x="47" y="40" width="54" height="59"/></clipPath><clipPath id="clip24"><rect x="48" y="56" width="35" height="44"/></clipPath><clipPath id="clip25"><rect x="51" y="42" width="308" height="71"/></clipPath><clipPath id="clip26"><rect x="50" y="43" width="384" height="71"/></clipPath></defs><g clip-path="url(#clip13)" transform="translate(-66 -162)"><g clip-path="url(#clip14)" filter="url(#fx0)" transform="translate(504 291)"><g><path d="M16.272 8.712C15.408 8.712 14.796 8.496 14.436 8.064 14.076 7.632 13.896 7.128 13.896 6.552 13.896 5.592 14.904 4.968 16.92 4.68 23.496 3.72 28.98 1.812 33.372-1.044 37.764-3.9 39.96-7.752 39.96-12.6 39.96-18.072 36.72-20.808 30.24-20.808 28.176-20.808 26.22-20.652 24.372-20.34 22.524-20.028 20.28-19.56 17.64-18.936 15-17.448 13.248-16.512 12.384-16.128 11.52-15.744 10.728-15.552 10.008-15.552 9.576-15.552 9.192-15.78 8.856-16.236 8.52-16.692 8.352-17.208 8.352-17.784 8.352-18.648 8.76-19.272 9.576-19.656 11.064-20.328 12.312-20.832 13.32-21.168 14.904-21.696 16.488-22.368 18.072-23.184 22.2-25.344 25.512-27.576 28.008-29.88 30.504-32.184 31.752-34.584 31.752-37.08 31.752-39.192 31.044-40.644 29.628-41.436 28.212-42.228 26.232-42.624 23.688-42.624 19.8-42.624 16.08-41.52 12.528-39.312 11.52-38.688 10.656-38.004 9.936-37.26 9.216-36.516 8.736-35.904 8.496-35.424 8.064-34.8 7.488-34.488 6.768-34.488 5.28-34.488 4.536-35.136 4.536-36.432 4.536-37.296 5.496-38.556 7.416-40.212 9.336-41.868 11.844-43.32 14.94-44.568 18.036-45.816 21.336-46.44 24.84-46.44 28.248-46.44 30.9-45.708 32.796-44.244 34.692-42.78 35.64-40.632 35.64-37.8 35.64-35.448 34.404-32.892 31.932-30.132 29.46-27.372 26.688-25.056 23.616-23.184L23.904-23.112C25.44-23.496 26.664-23.76 27.576-23.904 28.488-24.048 29.784-24.12 31.464-24.12 35.016-24.12 37.956-23.136 40.284-21.168 42.612-19.2 43.776-16.464 43.776-12.96 43.776-7.536 41.604-3.084 37.26 0.396 32.916 3.876 26.904 6.528 19.224 8.352 18.024 8.592 17.04 8.712 16.272 8.712Z" transform="translate(47.8486 90)"/></g></g><text font-family="Ink Free,Ink Free_MSFontService,sans-serif" font-weight="400" font-size="72" transform="translate(550.72 380)">3</text><g clip-path="url(#clip15)" filter="url(#fx1)" transform="translate(606 291)"><g><path d="M23.112 2.232C23.256 2.808 23.412 3.492 23.58 4.284 23.748 5.076 23.832 5.568 23.832 5.76 23.832 6.288 23.532 6.78 22.932 7.236 22.332 7.692 21.672 7.92 20.952 7.92 20.52 7.92 20.088 7.5 19.656 6.66 19.224 5.82 18.912 4.752 18.72 3.456 17.856-1.584 17.088-9.384 16.416-19.944L15.408-35.28C11.664-31.536 7.8-28.368 3.816-25.776 2.76-25.104 2.016-24.768 1.584-24.768 1.104-24.768 0.72-24.924 0.432-25.236 0.144-25.548 0-25.848 0-26.136 0-26.76 0.552-27.432 1.656-28.152 4.104-29.736 6.3-31.416 8.244-33.192 10.188-34.968 12.144-36.864 14.112-38.88L15.12-39.888 15.12-39.96 15.12-41.04 15.12-41.76C15.12-42.096 15.192-42.312 15.336-42.408 15.432-42.504 15.528-42.552 15.624-42.552 15.912-42.696 16.248-42.768 16.632-42.768 17.592-42.768 18.36-42.624 18.936-42.336 19.512-42.048 19.8-41.616 19.8-41.04 19.8-40.464 19.512-39.792 18.936-39.024 19.176-37.872 19.32-36.72 19.368-35.568 19.464-32.736 19.824-27.276 20.448-19.188 21.072-11.1 21.552-5.784 21.888-3.24 22.128-1.992 22.536-0.168 23.112 2.232Z" transform="translate(48.4666 90)"/></g></g><text font-family="Ink Free,Ink Free_MSFontService,sans-serif" font-weight="400" font-size="72" transform="translate(653.338 380)">1</text><g clip-path="url(#clip16)" filter="url(#fx2)" transform="translate(691 291)"><g><path d="M16.272 8.712C15.408 8.712 14.796 8.496 14.436 8.064 14.076 7.632 13.896 7.128 13.896 6.552 13.896 5.592 14.904 4.968 16.92 4.68 23.496 3.72 28.98 1.812 33.372-1.044 37.764-3.9 39.96-7.752 39.96-12.6 39.96-18.072 36.72-20.808 30.24-20.808 28.176-20.808 26.22-20.652 24.372-20.34 22.524-20.028 20.28-19.56 17.64-18.936 15-17.448 13.248-16.512 12.384-16.128 11.52-15.744 10.728-15.552 10.008-15.552 9.576-15.552 9.192-15.78 8.856-16.236 8.52-16.692 8.352-17.208 8.352-17.784 8.352-18.648 8.76-19.272 9.576-19.656 11.064-20.328 12.312-20.832 13.32-21.168 14.904-21.696 16.488-22.368 18.072-23.184 22.2-25.344 25.512-27.576 28.008-29.88 30.504-32.184 31.752-34.584 31.752-37.08 31.752-39.192 31.044-40.644 29.628-41.436 28.212-42.228 26.232-42.624 23.688-42.624 19.8-42.624 16.08-41.52 12.528-39.312 11.52-38.688 10.656-38.004 9.936-37.26 9.216-36.516 8.736-35.904 8.496-35.424 8.064-34.8 7.488-34.488 6.768-34.488 5.28-34.488 4.536-35.136 4.536-36.432 4.536-37.296 5.496-38.556 7.416-40.212 9.336-41.868 11.844-43.32 14.94-44.568 18.036-45.816 21.336-46.44 24.84-46.44 28.248-46.44 30.9-45.708 32.796-44.244 34.692-42.78 35.64-40.632 35.64-37.8 35.64-35.448 34.404-32.892 31.932-30.132 29.46-27.372 26.688-25.056 23.616-23.184L23.904-23.112C25.44-23.496 26.664-23.76 27.576-23.904 28.488-24.048 29.784-24.12 31.464-24.12 35.016-24.12 37.956-23.136 40.284-21.168 42.612-19.2 43.776-16.464 43.776-12.96 43.776-7.536 41.604-3.084 37.26 0.396 32.916 3.876 26.904 6.528 19.224 8.352 18.024 8.592 17.04 8.712 16.272 8.712Z" transform="translate(47.7513 90)"/></g></g><text font-family="Ink Free,Ink Free_MSFontService,sans-serif" font-weight="400" font-size="72" transform="translate(737.622 380)">3</text><g clip-path="url(#clip17)" filter="url(#fx3)" transform="translate(784 291)"><g><path d="M36.36 4.968C35.352 4.968 34.596 3.264 34.092-0.144 33.588-3.552 33.144-8.184 32.76-14.04 31.56-13.848 29.52-13.428 26.64-12.78 23.76-12.132 21.096-11.496 18.648-10.872 10.008-8.712 5.136-7.632 4.032-7.632 3.696-7.632 3.228-7.896 2.628-8.424 2.028-8.952 1.728-9.456 1.728-9.936 1.728-10.464 2.04-11.016 2.664-11.592 3.48-12.312 5.568-14.496 8.928-18.144 11.856-21.408 14.544-24.264 16.992-26.712 19.488-29.208 23.328-33.696 28.512-40.176 30.24-42.336 31.344-43.68 31.824-44.208 32.496-44.976 32.976-45.636 33.264-46.188 33.552-46.74 33.768-47.112 33.912-47.304 34.056-47.496 34.296-47.592 34.632-47.592 35.208-47.592 35.832-47.304 36.504-46.728 37.176-46.152 37.512-45.552 37.512-44.928 37.512-44.784 37.368-44.472 37.08-43.992 36.744-43.32 36.552-42.528 36.504-41.616 36.408-40.032 36.36-33.456 36.36-21.888 36.36-19.92 36.384-18.504 36.432-17.64L37.872-17.928C40.752-18.504 43.128-18.912 45-19.152 45.384-19.2 45.708-19.512 45.972-20.088 46.236-20.664 46.512-20.952 46.8-20.952 47.328-20.952 47.868-20.652 48.42-20.052 48.972-19.452 49.248-18.84 49.248-18.216 49.248-17.4 48.912-16.836 48.24-16.524 47.568-16.212 46.296-15.96 44.424-15.768L38.808-15.12 36.648-14.832C36.984-9.888 37.632-5.16 38.592-0.648 38.928 1.224 39.096 2.376 39.096 2.808 39.096 3.336 38.82 3.828 38.268 4.284 37.716 4.74 37.08 4.968 36.36 4.968ZM19.368-24.912C14.952-20.16 11.04-15.864 7.632-12.024L12.528-13.104C15.168-13.584 16.968-13.944 17.928-14.184 20.808-14.856 24.168-15.552 28.008-16.272L32.544-17.208C32.4-19.08 32.328-20.544 32.328-21.6 32.328-24.768 32.364-28.296 32.436-32.184 32.508-36.072 32.568-38.52 32.616-39.528 31.752-38.568 30.06-36.684 27.54-33.876 25.02-31.068 22.296-28.08 19.368-24.912Z" transform="translate(48.0359 90)"/></g></g><text font-family="Ink Free,Ink Free_MSFontService,sans-serif" font-weight="400" font-size="72" transform="translate(830.907 380)">4</text><g clip-path="url(#clip18)" filter="url(#fx4)" transform="translate(878 291)"><g><path d="M45.504 1.8C43.728 1.992 40.848 2.376 36.864 2.952 33.408 3.48 31.056 3.816 29.808 3.96L24.12 4.824C21.096 5.304 18.636 5.652 16.74 5.868 14.844 6.084 12.768 6.192 10.512 6.192 9.696 6.192 8.94 5.904 8.244 5.328 7.548 4.752 7.2 3.936 7.2 2.88 7.2 2.304 7.296 1.848 7.488 1.512 7.68 1.176 7.992 0.768 8.424 0.288 11.208-2.496 13.596-4.992 15.588-7.2 17.58-9.408 20.04-12.264 22.968-15.768 25.944-19.368 28.164-22.44 29.628-24.984 31.092-27.528 31.824-30.168 31.824-32.904 31.824-35.4 31.092-37.332 29.628-38.7 28.164-40.068 26.256-40.752 23.904-40.752 22.128-40.752 20.568-40.5 19.224-39.996 17.88-39.492 16.008-38.544 13.608-37.152 13.032-36.864 12.408-36.444 11.736-35.892 11.064-35.34 10.632-34.992 10.44-34.848 9.768-34.272 9.108-33.768 8.46-33.336 7.812-32.904 7.32-32.688 6.984-32.688 5.832-32.688 5.256-33.336 5.256-34.632 5.256-35.736 5.88-36.72 7.128-37.584 7.416-37.776 8.448-38.376 10.224-39.384 11.28-39.912 12.12-40.368 12.744-40.752 14.952-42 16.884-42.888 18.54-43.416 20.196-43.944 22.176-44.208 24.48-44.208 27.792-44.208 30.468-43.176 32.508-41.112 34.548-39.048 35.568-36.432 35.568-33.264 35.568-30.864 35.028-28.452 33.948-26.028 32.868-23.604 31.656-21.48 30.312-19.656 28.968-17.832 27.36-15.816 25.488-13.608 24.48-12.408 21.936-9.6 17.856-5.184L14.112-1.08C13.968-0.936 13.572-0.516 12.924 0.18 12.276 0.876 11.952 1.368 11.952 1.656 11.952 2.232 12.528 2.52 13.68 2.52 15.216 2.52 17.244 2.304 19.764 1.872 22.284 1.44 23.784 1.176 24.264 1.08L30.528 0C31.488-0.144 33.864-0.456 37.656-0.936 41.016-1.368 43.104-1.68 43.92-1.872 44.544-2.256 45.216-2.628 45.936-2.988 46.656-3.348 47.136-3.528 47.376-3.528 48.336-3.528 48.816-2.64 48.816-0.864 48.816-0.24 48.516 0.3 47.916 0.756 47.316 1.212 46.512 1.56 45.504 1.8Z" transform="translate(47.9039 90)"/></g></g><text font-family="Ink Free,Ink Free_MSFontService,sans-serif" font-weight="400" font-size="72" transform="translate(924.775 380)">2</text><g clip-path="url(#clip19)" filter="url(#fx5)" transform="translate(509 166)"><g><path d="M14.544 5.976C11.088 5.976 8.424 4.68 6.552 2.088 4.68-0.504 3.744-3.864 3.744-7.992 3.744-12.936 4.356-17.94 5.58-23.004 6.804-28.068 8.448-32.64 10.512-36.72 10.128-36.72 9.768-36.864 9.432-37.152 9.096-37.44 8.928-37.8 8.928-38.232 8.928-38.856 9.3-39.432 10.044-39.96 10.788-40.488 11.664-40.872 12.672-41.112 12.768-41.208 12.936-41.412 13.176-41.724 13.416-42.036 13.752-42.192 14.184-42.192 14.664-42.192 15.12-42.108 15.552-41.94 15.984-41.772 16.248-41.592 16.344-41.4 17.688-41.64 19.056-41.76 20.448-41.76 23.712-41.76 26.64-40.872 29.232-39.096 31.824-37.32 33.864-34.86 35.352-31.716 36.84-28.572 37.584-25.056 37.584-21.168 37.584-16.944 36.492-12.72 34.308-8.496 32.124-4.272 29.244-0.804 25.668 1.908 22.092 4.62 18.384 5.976 14.544 5.976ZM20.736-37.368C19.632-37.368 18.168-37.224 16.344-36.936L14.832-36.72C12.624-32.784 10.908-28.152 9.684-22.824 8.46-17.496 7.848-12.576 7.848-8.064 7.848-5.04 8.436-2.556 9.612-0.612 10.788 1.332 12.648 2.304 15.192 2.304 18.12 2.304 21.072 1.068 24.048-1.404 27.024-3.876 29.472-6.936 31.392-10.584 33.312-14.232 34.272-17.712 34.272-21.024 34.272-23.952 33.636-26.676 32.364-29.196 31.092-31.716 29.412-33.708 27.324-35.172 25.236-36.636 23.04-37.368 20.736-37.368Z" transform="translate(47.5153 91)"/></g></g><text font-family="Ink Free,Ink Free_MSFontService,sans-serif" font-weight="400" font-size="72" transform="translate(555.386 255)">0</text><g clip-path="url(#clip20)" filter="url(#fx6)" transform="translate(606 166)"><g><path d="M23.112 2.232C23.256 2.808 23.412 3.492 23.58 4.284 23.748 5.076 23.832 5.568 23.832 5.76 23.832 6.288 23.532 6.78 22.932 7.236 22.332 7.692 21.672 7.92 20.952 7.92 20.52 7.92 20.088 7.5 19.656 6.66 19.224 5.82 18.912 4.752 18.72 3.456 17.856-1.584 17.088-9.384 16.416-19.944L15.408-35.28C11.664-31.536 7.8-28.368 3.816-25.776 2.76-25.104 2.016-24.768 1.584-24.768 1.104-24.768 0.72-24.924 0.432-25.236 0.144-25.548 0-25.848 0-26.136 0-26.76 0.552-27.432 1.656-28.152 4.104-29.736 6.3-31.416 8.244-33.192 10.188-34.968 12.144-36.864 14.112-38.88L15.12-39.888 15.12-39.96 15.12-41.04 15.12-41.76C15.12-42.096 15.192-42.312 15.336-42.408 15.432-42.504 15.528-42.552 15.624-42.552 15.912-42.696 16.248-42.768 16.632-42.768 17.592-42.768 18.36-42.624 18.936-42.336 19.512-42.048 19.8-41.616 19.8-41.04 19.8-40.464 19.512-39.792 18.936-39.024 19.176-37.872 19.32-36.72 19.368-35.568 19.464-32.736 19.824-27.276 20.448-19.188 21.072-11.1 21.552-5.784 21.888-3.24 22.128-1.992 22.536-0.168 23.112 2.232Z" transform="translate(48.4666 91)"/></g></g><text font-family="Ink Free,Ink Free_MSFontService,sans-serif" font-weight="400" font-size="72" transform="translate(653.338 255)">1</text><g clip-path="url(#clip21)" filter="url(#fx7)" transform="translate(691 166)"><g><path d="M45.504 1.8C43.728 1.992 40.848 2.376 36.864 2.952 33.408 3.48 31.056 3.816 29.808 3.96L24.12 4.824C21.096 5.304 18.636 5.652 16.74 5.868 14.844 6.084 12.768 6.192 10.512 6.192 9.696 6.192 8.94 5.904 8.244 5.328 7.548 4.752 7.2 3.936 7.2 2.88 7.2 2.304 7.296 1.848 7.488 1.512 7.68 1.176 7.992 0.768 8.424 0.288 11.208-2.496 13.596-4.992 15.588-7.2 17.58-9.408 20.04-12.264 22.968-15.768 25.944-19.368 28.164-22.44 29.628-24.984 31.092-27.528 31.824-30.168 31.824-32.904 31.824-35.4 31.092-37.332 29.628-38.7 28.164-40.068 26.256-40.752 23.904-40.752 22.128-40.752 20.568-40.5 19.224-39.996 17.88-39.492 16.008-38.544 13.608-37.152 13.032-36.864 12.408-36.444 11.736-35.892 11.064-35.34 10.632-34.992 10.44-34.848 9.768-34.272 9.108-33.768 8.46-33.336 7.812-32.904 7.32-32.688 6.984-32.688 5.832-32.688 5.256-33.336 5.256-34.632 5.256-35.736 5.88-36.72 7.128-37.584 7.416-37.776 8.448-38.376 10.224-39.384 11.28-39.912 12.12-40.368 12.744-40.752 14.952-42 16.884-42.888 18.54-43.416 20.196-43.944 22.176-44.208 24.48-44.208 27.792-44.208 30.468-43.176 32.508-41.112 34.548-39.048 35.568-36.432 35.568-33.264 35.568-30.864 35.028-28.452 33.948-26.028 32.868-23.604 31.656-21.48 30.312-19.656 28.968-17.832 27.36-15.816 25.488-13.608 24.48-12.408 21.936-9.6 17.856-5.184L14.112-1.08C13.968-0.936 13.572-0.516 12.924 0.18 12.276 0.876 11.952 1.368 11.952 1.656 11.952 2.232 12.528 2.52 13.68 2.52 15.216 2.52 17.244 2.304 19.764 1.872 22.284 1.44 23.784 1.176 24.264 1.08L30.528 0C31.488-0.144 33.864-0.456 37.656-0.936 41.016-1.368 43.104-1.68 43.92-1.872 44.544-2.256 45.216-2.628 45.936-2.988 46.656-3.348 47.136-3.528 47.376-3.528 48.336-3.528 48.816-2.64 48.816-0.864 48.816-0.24 48.516 0.3 47.916 0.756 47.316 1.212 46.512 1.56 45.504 1.8Z" transform="translate(48.0012 91)"/></g></g><text font-family="Ink Free,Ink Free_MSFontService,sans-serif" font-weight="400" font-size="72" transform="translate(737.872 255)">2</text><g clip-path="url(#clip22)" filter="url(#fx8)" transform="translate(784 166)"><g><path d="M16.272 8.712C15.408 8.712 14.796 8.496 14.436 8.064 14.076 7.632 13.896 7.128 13.896 6.552 13.896 5.592 14.904 4.968 16.92 4.68 23.496 3.72 28.98 1.812 33.372-1.044 37.764-3.9 39.96-7.752 39.96-12.6 39.96-18.072 36.72-20.808 30.24-20.808 28.176-20.808 26.22-20.652 24.372-20.34 22.524-20.028 20.28-19.56 17.64-18.936 15-17.448 13.248-16.512 12.384-16.128 11.52-15.744 10.728-15.552 10.008-15.552 9.576-15.552 9.192-15.78 8.856-16.236 8.52-16.692 8.352-17.208 8.352-17.784 8.352-18.648 8.76-19.272 9.576-19.656 11.064-20.328 12.312-20.832 13.32-21.168 14.904-21.696 16.488-22.368 18.072-23.184 22.2-25.344 25.512-27.576 28.008-29.88 30.504-32.184 31.752-34.584 31.752-37.08 31.752-39.192 31.044-40.644 29.628-41.436 28.212-42.228 26.232-42.624 23.688-42.624 19.8-42.624 16.08-41.52 12.528-39.312 11.52-38.688 10.656-38.004 9.936-37.26 9.216-36.516 8.736-35.904 8.496-35.424 8.064-34.8 7.488-34.488 6.768-34.488 5.28-34.488 4.536-35.136 4.536-36.432 4.536-37.296 5.496-38.556 7.416-40.212 9.336-41.868 11.844-43.32 14.94-44.568 18.036-45.816 21.336-46.44 24.84-46.44 28.248-46.44 30.9-45.708 32.796-44.244 34.692-42.78 35.64-40.632 35.64-37.8 35.64-35.448 34.404-32.892 31.932-30.132 29.46-27.372 26.688-25.056 23.616-23.184L23.904-23.112C25.44-23.496 26.664-23.76 27.576-23.904 28.488-24.048 29.784-24.12 31.464-24.12 35.016-24.12 37.956-23.136 40.284-21.168 42.612-19.2 43.776-16.464 43.776-12.96 43.776-7.536 41.604-3.084 37.26 0.396 32.916 3.876 26.904 6.528 19.224 8.352 18.024 8.592 17.04 8.712 16.272 8.712Z" transform="translate(48.2026 91)"/></g></g><text font-family="Ink Free,Ink Free_MSFontService,sans-serif" font-weight="400" font-size="72" transform="translate(831.074 255)">3</text><g clip-path="url(#clip23)" filter="url(#fx9)" transform="translate(877 166)"><g><path d="M36.36 4.968C35.352 4.968 34.596 3.264 34.092-0.144 33.588-3.552 33.144-8.184 32.76-14.04 31.56-13.848 29.52-13.428 26.64-12.78 23.76-12.132 21.096-11.496 18.648-10.872 10.008-8.712 5.136-7.632 4.032-7.632 3.696-7.632 3.228-7.896 2.628-8.424 2.028-8.952 1.728-9.456 1.728-9.936 1.728-10.464 2.04-11.016 2.664-11.592 3.48-12.312 5.568-14.496 8.928-18.144 11.856-21.408 14.544-24.264 16.992-26.712 19.488-29.208 23.328-33.696 28.512-40.176 30.24-42.336 31.344-43.68 31.824-44.208 32.496-44.976 32.976-45.636 33.264-46.188 33.552-46.74 33.768-47.112 33.912-47.304 34.056-47.496 34.296-47.592 34.632-47.592 35.208-47.592 35.832-47.304 36.504-46.728 37.176-46.152 37.512-45.552 37.512-44.928 37.512-44.784 37.368-44.472 37.08-43.992 36.744-43.32 36.552-42.528 36.504-41.616 36.408-40.032 36.36-33.456 36.36-21.888 36.36-19.92 36.384-18.504 36.432-17.64L37.872-17.928C40.752-18.504 43.128-18.912 45-19.152 45.384-19.2 45.708-19.512 45.972-20.088 46.236-20.664 46.512-20.952 46.8-20.952 47.328-20.952 47.868-20.652 48.42-20.052 48.972-19.452 49.248-18.84 49.248-18.216 49.248-17.4 48.912-16.836 48.24-16.524 47.568-16.212 46.296-15.96 44.424-15.768L38.808-15.12 36.648-14.832C36.984-9.888 37.632-5.16 38.592-0.648 38.928 1.224 39.096 2.376 39.096 2.808 39.096 3.336 38.82 3.828 38.268 4.284 37.716 4.74 37.08 4.968 36.36 4.968ZM19.368-24.912C14.952-20.16 11.04-15.864 7.632-12.024L12.528-13.104C15.168-13.584 16.968-13.944 17.928-14.184 20.808-14.856 24.168-15.552 28.008-16.272L32.544-17.208C32.4-19.08 32.328-20.544 32.328-21.6 32.328-24.768 32.364-28.296 32.436-32.184 32.508-36.072 32.568-38.52 32.616-39.528 31.752-38.568 30.06-36.684 27.54-33.876 25.02-31.068 22.296-28.08 19.368-24.912Z" transform="translate(48.4872 91)"/></g></g><text font-family="Ink Free,Ink Free_MSFontService,sans-serif" font-weight="400" font-size="72" transform="translate(924.358 255)">4</text><path d="M575.844 187.715 576.066 186.487 576.753 185.203 577.826 183.987 579.268 182.807 583.133 180.564 588.314 178.395 594.706 176.31 602.215 174.318 610.744 172.435 620.193 170.676 630.459 169.059 641.443 167.601 653.042 166.319 665.153 165.231 677.674 164.354 690.507 163.706 716.677 163.167 742.846 163.676 755.678 164.288 768.198 165.117 780.309 166.144 791.907 167.355 802.89 168.732 813.156 170.259 822.603 171.919 831.131 173.698 838.639 175.579 845.029 177.548 850.25 179.612 852.507 181.279 851.715 182.352 849.528 180.736 849.679 180.82 844.562 178.797 844.611 178.814 838.263 176.858 838.297 176.868 830.82 174.994 830.845 175 822.341 173.227 822.362 173.231 812.933 171.573 812.951 171.576 802.701 170.052 802.716 170.054 791.748 168.678 791.761 168.68 780.177 167.471 780.19 167.472 768.092 166.446 768.104 166.447 755.596 165.619 755.608 165.62 742.792 165.008 742.81 165.009 716.664 164.5 716.691 164.5 690.544 165.039 690.564 165.038 677.748 165.686 677.761 165.685 665.252 166.561 665.265 166.56 653.168 167.647 653.181 167.645 641.597 168.926 641.611 168.924 630.643 170.38 630.659 170.378 620.409 171.992 620.427 171.989 610.999 173.744 611.021 173.739 602.516 175.617 602.544 175.611 595.066 177.594 595.102 177.583 588.753 179.655 588.804 179.636 583.688 181.777 583.765 181.739 579.983 183.933 580.071 183.873 578.713 184.984 578.79 184.909 577.804 186.027 577.892 185.901 577.291 187.023 577.359 186.827 577.156 187.952ZM853.973 178.032 856.854 186.5 848.351 183.724Z" fill="#4472C4"/><path d="M782.5 234.833 829.644 234.833 829.644 236.167 782.5 236.167ZM828.311 231.5 836.311 235.5 828.311 239.5Z" fill="#4472C4"/><path d="M876.5 234.833 923.644 234.833 923.644 236.167 876.5 236.167ZM922.311 231.5 930.311 235.5 922.311 239.5Z" fill="#4472C4"/><path d="M951.051 283.655 950.485 286.026 948.803 288.426 946.181 290.708 942.696 292.896 938.41 294.994 933.383 296.994 927.679 298.883 921.365 300.646 914.508 302.266 907.173 303.726 899.43 305.01 891.34 306.1 874.423 307.627 856.952 308.167 839.482 307.657 822.567 306.215 814.478 305.186 806.736 303.974 799.403 302.594 792.546 301.065 786.233 299.4 780.531 297.616 775.506 295.728 771.189 293.733 767.099 290.706 767.892 289.634 771.928 292.62 771.811 292.551 776.043 294.507 775.998 294.488 780.983 296.362 780.947 296.349 786.617 298.123 786.588 298.115 792.874 299.772 792.849 299.766 799.682 301.291 799.66 301.286 806.972 302.661 806.952 302.658 814.675 303.867 814.656 303.864 822.721 304.891 822.694 304.888 839.577 306.327 839.54 306.325 856.971 306.834 856.931 306.834 874.362 306.295 874.322 306.297 891.206 304.774 891.177 304.777 899.242 303.69 899.222 303.693 906.945 302.413 906.924 302.417 914.236 300.96 914.213 300.966 921.046 299.351 921.02 299.358 927.305 297.603 927.275 297.612 932.945 295.734 932.908 295.748 937.893 293.764 937.846 293.785 942.079 291.714 942.017 291.748 945.428 289.606 945.345 289.668 947.866 287.474 947.758 287.594 949.321 285.364 949.218 285.592 949.754 283.345ZM765.093 293.635 763.5 284.833 771.497 288.84Z" fill="#4472C4"/><path d="M-0.104817 0.658375-4.67312-0.0689224-9.16085-2.15356-13.323-5.36616-17.0326-9.51121-20.1594-14.4025-22.5683-19.8576-24.1196-25.695-24.6691-31.728-24.4083-34.8102-23.6511-37.8558-22.4348-40.8406-20.796-43.7417-18.7696-46.5379-16.3798-49.2188-10.6995-54.0855-3.97866-58.1985 3.51684-61.3671 11.5349-63.407 19.8063-64.1282 23.9822-63.9391 28.1219-63.3881 36.1276-61.3085 43.6241-58.0729 50.3452-53.8733 56.0251-48.9047 58.4142-46.1683 60.4398-43.3146 62.0775-40.3543 63.2927-37.3097 64.049-34.2038 64.3094-31.0614 63.7604-24.9063 62.2101-18.9502 59.8025-13.3835 56.677-8.39149 52.9684-4.16054 48.7847-0.8635 46.2746 0.085161 45.8032-1.16207 48.2172-2.07438 48.0402-1.97437 52.0949-5.16976 52.0062-5.08559 55.639-9.2301 55.5753-9.14444 58.6456-14.0482 58.5987-13.9591 60.9659-19.4324 60.9326-19.3357 62.4561-25.1886 62.4372-25.0799 62.9763-31.1227 62.9759-31.0084 62.7245-34.0417 62.7411-33.939 62.0083-36.9485 62.0369-36.8591 60.8547-39.8212 60.8906-39.7456 59.2912-42.6364 59.3309-42.5733 57.3463-45.3693 57.3878-45.3167 55.0502-47.994 55.1135-47.9307 49.5076-52.8345 49.5933-52.7709 42.9603-56.9154 43.0494-56.8687 35.6462-60.0641 35.7428-60.0309 27.8261-62.0873 27.9057-62.0718 23.835-62.6136 23.8928-62.6084 19.79-62.7943 19.8781-62.7961 11.7047-62.0834 11.8111-62.1015 3.8944-60.0874 3.98962-60.1194-3.41359-56.9898-3.32518-57.0352-9.95811-52.976-9.87235-53.0383-15.4782-48.2354-15.4143-48.2981-17.7519-45.6758-17.7097-45.7283-19.6943-42.9898-19.6536-43.0531-21.253-40.2218-21.2161-40.2981-22.3983-37.397-22.3687-37.4877-23.1015-34.5401-23.0842-34.6447-23.3356-31.6739-23.336-31.7906-22.7969-25.8722-22.8165-25.9829-21.2931-20.2504-21.3275-20.3485-18.9604-14.9879-19.0085-15.0776-15.9382-10.2747-16.0031-10.3602-12.3703-6.30102-12.4598-6.38418-8.40511-3.25455-8.5316-3.33142-4.19568-1.31731-4.37172-1.37106 0.104817-0.658375ZM48.4417 2.92629 39.6404 1.33333 46.1955-4.75191Z" fill="#4472C4" transform="matrix(1 -1.22465e-16 -1.22465e-16 -1 649.5 236.833)"/><g clip-path="url(#clip24)" filter="url(#fx10)" transform="translate(104 291)"><g><path d="M15.5391-0.175781C17.6016-0.175781 19.4355-0.662109 21.041-1.63477 22.6465-2.60742 23.9062-3.94336 24.8203-5.64258 25.7344-7.3418 26.1914-9.12891 26.1914-11.0039L26.1914-15.3281 21.0586-15.1875C16.2773-15.0703 12.873-14.3437 10.8457-13.0078 8.81836-11.6719 7.80469-9.65625 7.80469-6.96094 7.80469-2.4375 10.3828-0.175781 15.5391-0.175781ZM30.6562 2.8125 26.4023 2.8125 26.1914-3.55078 26.0508-3.55078C23.6367 1.16016 19.8867 3.51562 14.8008 3.51562 11.0742 3.51562 8.19727 2.5957 6.16992 0.755859 4.14258-1.08398 3.12891-3.63281 3.12891-6.89062 3.12891-10.5937 4.5293-13.418 7.33008-15.3633 10.1309-17.3086 14.4492-18.3633 20.2852-18.5273L26.1562-18.668 26.1562-20.1094C26.1562-23.4844 25.4824-25.9746 24.1348-27.5801 22.7871-29.1855 20.6953-29.9883 17.8594-29.9883 15.2578-29.9883 13.2949-29.5723 11.9707-28.7402 10.6465-27.9082 9.73828-26.5078 9.24609-24.5391L5.02734-25.418C5.77734-28.4414 7.20117-30.5742 9.29883-31.8164 11.3965-33.0586 14.2734-33.6797 17.9297-33.6797 22.4062-33.6797 25.6465-32.5664 27.6504-30.3398 29.6543-28.1133 30.6562-24.5742 30.6562-19.7227Z" transform="translate(48.397 93)"/></g></g><text font-family="DengXian,DengXian_MSFontService,sans-serif" font-weight="400" font-size="72" transform="translate(151.231 383)">a</text><g clip-path="url(#clip25)" filter="url(#fx11)" transform="translate(140 291)"><g><path d="M5.94141 2.8125 5.94141-24.1172C5.94141-26.0156 5.83594-28.9687 5.625-32.9766L9.77344-32.9766C10.0312-30.3984 10.1602-27.6914 10.1602-24.8555L10.3008-24.8555C11.2852-28.0195 12.5859-30.2812 14.2031-31.6406 15.8203-33 17.9062-33.6797 20.4609-33.6797 21.4453-33.6797 22.3594-33.5742 23.2031-33.3633L23.2031-29.2148C22.3125-29.4258 21.1992-29.5312 19.8633-29.5312 16.9102-29.5312 14.6016-28.2715 12.9375-25.752 11.2734-23.2324 10.4414-19.7695 10.4414-15.3633L10.4414 2.8125ZM30.2747 2.8125 30.2747-24.1172C30.2747-26.0156 30.1693-28.9687 29.9583-32.9766L34.1068-32.9766C34.3646-30.3984 34.4935-27.6914 34.4935-24.8555L34.6341-24.8555C35.6185-28.0195 36.9193-30.2812 38.5365-31.6406 40.1536-33 42.2396-33.6797 44.7943-33.6797 45.7786-33.6797 46.6927-33.5742 47.5365-33.3633L47.5365-29.2148C46.6458-29.4258 45.5326-29.5312 44.1966-29.5312 41.2435-29.5312 38.9349-28.2715 37.2708-25.752 35.6068-23.2324 34.7747-19.7695 34.7747-15.3633L34.7747 2.8125ZM64.2057-0.175781C66.2682-0.175781 68.1022-0.662109 69.7077-1.63477 71.3132-2.60742 72.5729-3.94336 73.487-5.64258 74.401-7.3418 74.8581-9.12891 74.8581-11.0039L74.8581-15.3281 69.7253-15.1875C64.944-15.0703 61.5397-14.3437 59.5124-13.0078 57.485-11.6719 56.4714-9.65625 56.4714-6.96094 56.4714-2.4375 59.0495-0.175781 64.2057-0.175781ZM79.3229 2.8125 75.069 2.8125 74.8581-3.55078 74.7175-3.55078C72.3034 1.16016 68.5534 3.51562 63.4674 3.51562 59.7409 3.51562 56.8639 2.5957 54.8366 0.755859 52.8092-1.08398 51.7956-3.63281 51.7956-6.89062 51.7956-10.5937 53.196-13.418 55.9967-15.3633 58.7975-17.3086 63.1159-18.3633 68.9518-18.5273L74.8229-18.668 74.8229-20.1094C74.8229-23.4844 74.1491-25.9746 72.8014-27.5801 71.4538-29.1855 69.362-29.9883 66.526-29.9883 63.9245-29.9883 61.9616-29.5723 60.6374-28.7402 59.3131-27.9082 58.4049-26.5078 57.9128-24.5391L53.694-25.418C54.444-28.4414 55.8678-30.5742 57.9655-31.8164 60.0631-33.0586 62.9401-33.6797 66.5964-33.6797 71.0729-33.6797 74.3132-32.5664 76.3171-30.3398 78.321-28.1133 79.3229-24.5742 79.3229-19.7227ZM90.1862 16.6641C89.0612 16.6641 87.9831 16.5352 86.9518 16.2773L86.9518 12.2695C87.7956 12.5039 88.6979 12.6211 89.6589 12.6211 91.0417 12.6211 92.2253 12.293 93.2096 11.6367 94.194 10.9805 95.0964 9.97266 95.9167 8.61328 96.737 7.25391 97.569 5.91797 98.4128 4.60547L99.0104 3.05859 84.8776-32.9766 89.6589-32.9766 97.6393-11.918C99.3971-7.20703 100.639-3.66797 101.366-1.30078 101.928-2.89453 102.491-4.4707 103.053-6.0293 103.616-7.58789 104.202-9.16406 104.811-10.7578L113.214-32.9766 117.96-32.9766 102.667 5.69531C101.026 9 99.2389 11.6543 97.3053 13.6582 95.3717 15.6621 92.9987 16.6641 90.1862 16.6641ZM141.621-15.8906C141.621-22.3594 142.5-27.9844 144.258-32.7656 146.016-37.5469 148.957-42.7266 153.082-48.3047L157.266-48.3047C153.117-42.6797 150.146-37.4473 148.354-32.6074 146.561-27.7676 145.664-22.1719 145.664-15.8203 145.664-9.49219 146.555-3.9082 148.336 0.931641 150.117 5.77148 153.094 11.0273 157.266 16.6992L153.082 16.6992C149.051 11.2852 146.133 6.14648 144.328 1.2832 142.523-3.58008 141.621-9.30469 141.621-15.8906ZM188.742 2.8125 188.742-18.1406C188.742-22.2891 188.027-25.3008 186.598-27.1758 185.168-29.0508 182.941-29.9883 179.918-29.9883 176.66-29.9883 174.07-28.7988 172.148-26.4199 170.227-24.041 169.266-20.8242 169.266-16.7695L169.266 2.8125 164.801 2.8125 164.801-24.9961C164.801-26.332 164.771-27.6621 164.713-28.9863 164.654-30.3105 164.602-31.6406 164.555-32.9766L168.563-32.9766 168.984-26.1562 169.125-26.1562C170.367-28.7109 171.938-30.6035 173.836-31.834 175.734-33.0645 178.16-33.6797 181.113-33.6797 185.215-33.6797 188.256-32.502 190.236-30.1465 192.217-27.791 193.207-24.1523 193.207-19.2305L193.207 2.8125ZM206.823-14.3789C206.823-9.90234 207.813-6.41602 209.794-3.91992 211.774-1.42383 214.534-0.175781 218.073-0.175781 220.44-0.175781 222.473-0.662109 224.173-1.63477 225.872-2.60742 227.342-4.24219 228.585-6.53906L232.135-4.60547C230.495-1.67578 228.526 0.410156 226.229 1.65234 223.932 2.89453 221.178 3.51562 217.967 3.51562 212.882 3.51562 208.979 1.89844 206.26-1.33594 203.542-4.57031 202.182-9.24609 202.182-15.3633 202.182-19.2773 202.827-22.6055 204.116-25.3477 205.405-28.0898 207.227-30.1641 209.583-31.5703 211.938-32.9766 214.686-33.6797 217.827-33.6797 222.702-33.6797 226.428-32.1211 229.007-29.0039 231.585-25.8867 232.874-21.4102 232.874-15.5742L232.874-14.3789ZM217.651-29.9883C214.37-29.9883 211.803-28.9629 209.952-26.9121 208.1-24.8613 207.081-21.8438 206.893-17.8594L228.198-17.8594C227.776-25.9453 224.26-29.9883 217.651-29.9883ZM261.893 2.8125 251.452-12.6211 240.975 2.8125 236.194 2.8125 248.885-15.5391 236.792-32.9766 241.714-32.9766 251.452-18.4219 261.155-32.9766 266.112-32.9766 254.053-15.6094 266.885 2.8125ZM282.169 3.375C279.568 3.375 277.593 2.68359 276.245 1.30078 274.898-0.0820312 274.224-2.12109 274.224-4.81641L274.224-29.2852 268.951-29.2852 268.951-32.9766 274.294-32.9766 275.49-41.2383 278.724-41.2383 278.724-32.9766 288.251-32.9766 288.251-29.2852 278.724-29.2852 278.724-5.625C278.724-3.9375 279.064-2.625 279.743-1.6875 280.423-0.75 281.642-0.28125 283.4-0.28125 284.923-0.28125 286.681-0.492188 288.673-0.914062L288.673 2.56641C286.634 3.10547 284.466 3.375 282.169 3.375ZM307.569-15.7852C307.569-9.45703 306.696-3.88477 304.95 0.931641 303.204 5.74805 300.245 11.0039 296.073 16.6992L291.924 16.6992C296.073 11.0742 299.044 5.8418 300.837 1.00195 302.63-3.83789 303.526-9.43359 303.526-15.7852 303.526-22.0664 302.635-27.6328 300.854-32.4844 299.073-37.3359 296.096-42.6094 291.924-48.3047L296.073-48.3047C300.198-42.75 303.145-37.5586 304.915-32.7305 306.684-27.9023 307.569-22.2539 307.569-15.7852Z" transform="translate(48.397 93)"/></g></g><text font-family="DengXian,DengXian_MSFontService,sans-serif" font-weight="400" font-size="72" transform="translate(187.231 383)">rray (next)</text><g clip-path="url(#clip26)" filter="url(#fx12)" transform="translate(65 167)"><g><path d="M5.80078-42.8555 5.80078-48.3047 10.2656-48.3047 10.2656-42.8555ZM5.80078 2.8125 5.80078-32.9766 10.2656-32.9766 10.2656 2.8125ZM45.9089 2.8125 45.9089-18.1406C45.9089-22.2891 45.194-25.3008 43.7643-27.1758 42.3346-29.0508 40.1081-29.9883 37.0846-29.9883 33.8268-29.9883 31.237-28.7988 29.3151-26.4199 27.3932-24.041 26.4323-20.8242 26.4323-16.7695L26.4323 2.8125 21.9674 2.8125 21.9674-24.9961C21.9674-26.332 21.9382-27.6621 21.8796-28.9863 21.821-30.3105 21.7682-31.6406 21.7214-32.9766L25.7292-32.9766 26.151-26.1562 26.2917-26.1562C27.5339-28.7109 29.1042-30.6035 31.0026-31.834 32.901-33.0645 35.3268-33.6797 38.2799-33.6797 42.3815-33.6797 45.4225-32.502 47.403-30.1465 49.3835-27.791 50.3737-24.1523 50.3737-19.2305L50.3737 2.8125ZM59.3138-15.0117C59.3138-20.7539 60.6908-25.3008 63.4447-28.6523 66.1986-32.0039 70.0365-33.6797 74.9583-33.6797 77.724-33.6797 80.0794-33.1465 82.0247-32.0801 83.9701-31.0137 85.5872-29.2852 86.8763-26.8945L87.0169-26.8945C86.9466-27.9727 86.9115-29.0625 86.9115-30.1641L86.9115-48.2695 91.3763-48.2695 91.3763-4.74609C91.3763-1.81641 91.4701 0.703125 91.6576 2.8125L87.3685 2.8125C87.1341-0.210937 87.0169-2.39062 87.0169-3.72656L86.8763-3.72656C85.4232-1.125 83.7064 0.732422 81.7259 1.8457 79.7454 2.95898 77.3841 3.51562 74.6419 3.51562 69.7669 3.51562 65.9935 1.89844 63.3216-1.33594 60.6497-4.57031 59.3138-9.12891 59.3138-15.0117ZM63.9193-15.082C63.9193-10.3477 64.8392-6.67969 66.679-4.07812 68.5189-1.47656 71.2904-0.175781 74.9935-0.175781 79.0013-0.175781 82.0013-1.45312 83.9935-4.00781 85.9857-6.5625 86.9818-10.2539 86.9818-15.082 86.9818-19.9805 86.0033-23.6895 84.0462-26.209 82.0892-28.7285 79.1888-29.9883 75.3451-29.9883 71.5013-29.9883 68.6361-28.6816 66.7494-26.0684 64.8626-23.4551 63.9193-19.793 63.9193-15.082ZM105.323-14.3789C105.323-9.90234 106.313-6.41602 108.294-3.91992 110.274-1.42383 113.034-0.175781 116.573-0.175781 118.94-0.175781 120.973-0.662109 122.673-1.63477 124.372-2.60742 125.842-4.24219 127.085-6.53906L130.635-4.60547C128.995-1.67578 127.026 0.410156 124.729 1.65234 122.432 2.89453 119.678 3.51562 116.467 3.51562 111.382 3.51562 107.479 1.89844 104.76-1.33594 102.042-4.57031 100.682-9.24609 100.682-15.3633 100.682-19.2773 101.327-22.6055 102.616-25.3477 103.905-28.0898 105.727-30.1641 108.083-31.5703 110.438-32.9766 113.186-33.6797 116.327-33.6797 121.202-33.6797 124.928-32.1211 127.507-29.0039 130.085-25.8867 131.374-21.4102 131.374-15.5742L131.374-14.3789ZM116.151-29.9883C112.87-29.9883 110.303-28.9629 108.452-26.9121 106.6-24.8613 105.581-21.8438 105.393-17.8594L126.698-17.8594C126.276-25.9453 122.76-29.9883 116.151-29.9883ZM160.393 2.8125 149.952-12.6211 139.475 2.8125 134.694 2.8125 147.385-15.5391 135.292-32.9766 140.214-32.9766 149.952-18.4219 159.655-32.9766 164.612-32.9766 152.553-15.6094 165.385 2.8125ZM189.121-15.8906C189.121-22.3594 190-27.9844 191.758-32.7656 193.516-37.5469 196.457-42.7266 200.582-48.3047L204.766-48.3047C200.617-42.6797 197.646-37.4473 195.854-32.6074 194.061-27.7676 193.164-22.1719 193.164-15.8203 193.164-9.49219 194.055-3.9082 195.836 0.931641 197.617 5.77148 200.594 11.0273 204.766 16.6992L200.582 16.6992C196.551 11.2852 193.633 6.14648 191.828 1.2832 190.023-3.58008 189.121-9.30469 189.121-15.8906ZM236.242 2.8125 236.242-18.1406C236.242-22.2891 235.527-25.3008 234.098-27.1758 232.668-29.0508 230.441-29.9883 227.418-29.9883 224.16-29.9883 221.57-28.7988 219.648-26.4199 217.727-24.041 216.766-20.8242 216.766-16.7695L216.766 2.8125 212.301 2.8125 212.301-24.9961C212.301-26.332 212.271-27.6621 212.213-28.9863 212.154-30.3105 212.102-31.6406 212.055-32.9766L216.063-32.9766 216.484-26.1562 216.625-26.1562C217.867-28.7109 219.438-30.6035 221.336-31.834 223.234-33.0645 225.66-33.6797 228.613-33.6797 232.715-33.6797 235.756-32.502 237.736-30.1465 239.717-27.791 240.707-24.1523 240.707-19.2305L240.707 2.8125ZM283.96-15.1172C283.96-9.30469 282.442-4.74609 279.407-1.44141 276.372 1.86328 272.112 3.51562 266.628 3.51562 261.354 3.51562 257.206 1.8457 254.182-1.49414 251.159-4.83398 249.647-9.375 249.647-15.1172 249.647-20.9531 251.159-25.5059 254.182-28.7754 257.206-32.0449 261.424-33.6797 266.839-33.6797 272.417-33.6797 276.665-32.0918 279.583-28.916 282.501-25.7402 283.96-21.1406 283.96-15.1172ZM279.284-15.1172C279.284-20.0391 278.253-23.748 276.19-26.2441 274.128-28.7402 271.057-29.9883 266.979-29.9883 262.831-29.9883 259.684-28.7109 257.54-26.1562 255.395-23.6016 254.323-19.9219 254.323-15.1172 254.323-10.3828 255.383-6.70898 257.505-4.0957 259.626-1.48242 262.643-0.175781 266.557-0.175781 270.776-0.175781 273.952-1.44141 276.085-3.97266 278.217-6.50391 279.284-10.2188 279.284-15.1172ZM290.98-15.0117C290.98-20.7539 292.357-25.3008 295.111-28.6523 297.865-32.0039 301.703-33.6797 306.625-33.6797 309.391-33.6797 311.746-33.1465 313.691-32.0801 315.637-31.0137 317.254-29.2852 318.543-26.8945L318.684-26.8945C318.613-27.9727 318.578-29.0625 318.578-30.1641L318.578-48.2695 323.043-48.2695 323.043-4.74609C323.043-1.81641 323.137 0.703125 323.324 2.8125L319.035 2.8125C318.801-0.210937 318.684-2.39062 318.684-3.72656L318.543-3.72656C317.09-1.125 315.373 0.732422 313.393 1.8457 311.412 2.95898 309.051 3.51562 306.309 3.51562 301.434 3.51562 297.66 1.89844 294.988-1.33594 292.316-4.57031 290.98-9.12891 290.98-15.0117ZM295.586-15.082C295.586-10.3477 296.506-6.67969 298.346-4.07812 300.186-1.47656 302.957-0.175781 306.66-0.175781 310.668-0.175781 313.668-1.45312 315.66-4.00781 317.652-6.5625 318.648-10.2539 318.648-15.082 318.648-19.9805 317.67-23.6895 315.713-26.209 313.756-28.7285 310.855-29.9883 307.012-29.9883 303.168-29.9883 300.303-28.6816 298.416-26.0684 296.529-23.4551 295.586-19.793 295.586-15.082ZM336.99-14.3789C336.99-9.90234 337.98-6.41602 339.96-3.91992 341.941-1.42383 344.701-0.175781 348.24-0.175781 350.607-0.175781 352.64-0.662109 354.339-1.63477 356.038-2.60742 357.509-4.24219 358.751-6.53906L362.302-4.60547C360.661-1.67578 358.693 0.410156 356.396 1.65234 354.099 2.89453 351.345 3.51562 348.134 3.51562 343.048 3.51562 339.146 1.89844 336.427-1.33594 333.708-4.57031 332.349-9.24609 332.349-15.3633 332.349-19.2773 332.994-22.6055 334.283-25.3477 335.572-28.0898 337.394-30.1641 339.749-31.5703 342.105-32.9766 344.853-33.6797 347.994-33.6797 352.869-33.6797 356.595-32.1211 359.173-29.0039 361.751-25.8867 363.04-21.4102 363.04-15.5742L363.04-14.3789ZM347.818-29.9883C344.536-29.9883 341.97-28.9629 340.119-26.9121 338.267-24.8613 337.247-21.8438 337.06-17.8594L358.365-17.8594C357.943-25.9453 354.427-29.9883 347.818-29.9883ZM383.236-15.7852C383.236-9.45703 382.363-3.88477 380.617 0.931641 378.87 5.74805 375.911 11.0039 371.74 16.6992L367.591 16.6992C371.74 11.0742 374.71 5.8418 376.503 1.00195 378.296-3.83789 379.193-9.43359 379.193-15.7852 379.193-22.0664 378.302-27.6328 376.521-32.4844 374.74-37.3359 371.763-42.6094 367.591-48.3047L371.74-48.3047C375.865-42.75 378.812-37.5586 380.581-32.7305 382.351-27.9023 383.236-22.2539 383.236-15.7852Z" transform="translate(47.5367 94)"/></g></g><text font-family="DengXian,DengXian_MSFontService,sans-serif" font-weight="400" font-size="72" transform="translate(111.371 260)">index (node)</text></g></svg>