<svg width="876" height="303" xmlns="http://www.w3.org/2000/svg" xmlns:xlink="http://www.w3.org/1999/xlink" overflow="hidden"><defs><clipPath id="clip0"><rect x="163" y="315" width="876" height="303"/></clipPath></defs><g clip-path="url(#clip0)" transform="translate(-163 -315)"><path d="M279.5 368.834C279.5 364.783 282.783 361.5 286.834 361.5L399.167 361.5C403.217 361.5 406.5 364.783 406.5 368.834L406.5 398.167C406.5 402.217 403.217 405.5 399.167 405.5L286.834 405.5C282.783 405.5 279.5 402.217 279.5 398.167Z" stroke="#2F528F" stroke-width="1.33333" stroke-miterlimit="8" fill="none" fill-rule="evenodd"/><text font-family="DengXian,DengXian_MSFontService,sans-serif" font-weight="400" font-size="24" transform="translate(295.84 390)">img_step</text><path d="M652.5 490C652.5 485.858 655.858 482.5 660 482.5L735 482.5C739.142 482.5 742.5 485.858 742.5 490L742.5 520C742.5 524.142 739.142 527.5 735 527.5L660 527.5C655.858 527.5 652.5 524.142 652.5 520Z" stroke="#2F528F" stroke-width="1.33333" stroke-miterlimit="8" fill="none" fill-rule="evenodd"/><text font-family="DengXian,DengXian_MSFontService,sans-serif" font-weight="400" font-size="24" transform="translate(674.322 512)">MLP</text><path d="M203 338C211.284 338 218 339.119 218 340.5L218 380C218 381.381 224.716 382.5 233 382.5 224.716 382.5 218 383.619 218 385L218 424.5C218 425.881 211.284 427 203 427" stroke="#4472C4" stroke-width="2" stroke-miterlimit="8" fill="none" fill-rule="evenodd"/><text font-family="Cambria Math,Cambria Math_MSFontService,sans-serif" font-weight="400" font-size="24" transform="translate(173.298 343)">ğ‘<tspan font-size="18" x="13.3333" y="5">0</tspan><tspan font-size="24" x="0.0466614" y="92">ğ‘§</tspan><tspan font-size="18" x="11.1267" y="97">0</tspan></text><path d="M233.5 383.167 272.569 383.167 272.569 383.833 233.5 383.833ZM271.236 379.5 279.236 383.5 271.236 387.5Z" fill="#4472C4"/><path d="M8.09228e-07-0.333333 36.579-0.333245 36.579 0.333422-8.09228e-07 0.333333ZM35.2457-3.99991 43.2457 0.000104987 35.2457 4.00009Z" fill="#4472C4" transform="matrix(1 0 0 -1 406.5 383.5)"/><path d="M548 424C539.716 424 533 422.881 533 421.5L533 389.5C533 388.119 526.284 387 518 387 526.284 387 533 385.881 533 384.5L533 352.5C533 351.119 539.716 350 548 350" stroke="#4472C4" stroke-width="2" stroke-miterlimit="8" fill="none" fill-rule="evenodd"/><text font-family="Cambria Math,Cambria Math_MSFontService,sans-serif" font-weight="400" font-size="24" transform="translate(552.996 353)">ğœ‡<tspan font-size="18" x="12.6133" y="5">1</tspan><tspan font-size="24" x="23.7733" y="0">,</tspan><tspan font-size="24" x="32.7734" y="0">ğœ</tspan><tspan font-size="18" x="44.58" y="5">1</tspan><tspan font-size="24" x="2.71759" y="74">â„</tspan><tspan font-size="24" x="16.4643" y="74">_</tspan><tspan font-size="24" x="25.2976" y="74">1</tspan><tspan font-family="DengXian,DengXian_MSFontService,sans-serif" font-size="24" x="-94.1529" y="37">prior</tspan><tspan font-size="24" x="-379.678" y="159">ğ‘’</tspan><tspan font-size="18" x="-368.544" y="164">0</tspan></text><path d="M205.5 505.167 645.55 505.167 645.55 505.833 205.5 505.833ZM644.217 501.5 652.217 505.5 644.217 509.5Z" fill="#4472C4"/><path d="M600.533 420.168 603.062 420.421 605.558 421.125 607.977 422.334 610.393 423.86 614.876 428.091 618.909 433.573 622.243 439.99 624.883 447.219 626.581 454.952 627.145 462.851 627.708 470.726 627.701 470.679 629.388 478.366 629.375 478.322 632 485.447 631.984 485.41 635.296 491.848 635.269 491.803 639.269 497.24 639.229 497.195 643.666 501.383 643.589 501.328 646.799 502.969 646.495 503.562 643.243 501.9 638.749 497.659 634.716 492.176 631.382 485.697 628.742 478.531 627.044 470.798 626.48 462.899 625.918 455.024 625.924 455.072 624.237 447.384 624.249 447.427 621.624 440.239 621.642 440.279 618.329 433.904 618.357 433.948 614.357 428.51 614.396 428.555 609.959 424.367 610.01 424.407 607.635 422.907 607.664 422.923 605.289 421.736 605.347 421.758 602.91 421.071 602.967 421.082 600.467 420.832ZM646.53 499.051 653.028 505.197 644.212 506.708Z" fill="#4472C4"/><path d="M742.503 505.167 820.742 505.765 820.737 506.432 742.497 505.833ZM819.436 502.089 827.406 506.15 819.375 510.088Z" fill="#4472C4"/><text font-family="Cambria Math,Cambria Math_MSFontService,sans-serif" font-weight="400" font-size="24" transform="translate(837.788 512)">ğœ‡</text><path d="M8.47266-16.0078 9.38672-15.6094C9.01953-14.9687 8.66992-14.4746 8.33789-14.127 8.00586-13.7793 7.6875-13.541 7.38281-13.4121 7.07812-13.2832 6.73047-13.2187 6.33984-13.2188 6.08203-13.2187 5.85547-13.2402 5.66016-13.2832 5.46484-13.3262 5.27344-13.3887 5.08594-13.4707 4.89844-13.5527 4.60547-13.7031 4.20703-13.9219 3.94922-14.0625 3.74414-14.1719 3.5918-14.25 3.43945-14.3281 3.28125-14.3926 3.11719-14.4434 2.95312-14.4941 2.78125-14.5195 2.60156-14.5195 2.34375-14.5195 2.13086-14.4805 1.96289-14.4023 1.79492-14.3242 1.625-14.1875 1.45312-13.9922 1.28125-13.7969 1.10156-13.5391 0.914062-13.2188L0-13.6172C0.460937-14.3672 0.837891-14.8887 1.13086-15.1816 1.42383-15.4746 1.72266-15.6855 2.02734-15.8145 2.33203-15.9434 2.69531-16.0078 3.11719-16.0078 3.35156-16.0078 3.5625-15.9863 3.75-15.9434 3.9375-15.9004 4.11133-15.8437 4.27148-15.7734 4.43164-15.7031 4.70703-15.5625 5.09766-15.3516 5.37109-15.1953 5.5918-15.0742 5.75977-14.9883 5.92773-14.9023 6.09766-14.834 6.26953-14.7832 6.44141-14.7324 6.64062-14.707 6.86719-14.707 7.17187-14.707 7.44531-14.8027 7.6875-14.9941 7.92969-15.1855 8.19141-15.5234 8.47266-16.0078Z" transform="translate(841.394 512)"/><text font-family="Cambria Math,Cambria Math_MSFontService,sans-serif" font-weight="400" font-size="18" transform="translate(850.401 517)">1<tspan font-size="24" x="11.16" y="-5">,</tspan><tspan font-size="24" x="20.16" y="-5">ğœ</tspan></text><path d="M8.47266-16.0078 9.38672-15.6094C9.01953-14.9687 8.66992-14.4746 8.33789-14.127 8.00586-13.7793 7.6875-13.541 7.38281-13.4121 7.07812-13.2832 6.73047-13.2187 6.33984-13.2188 6.08203-13.2187 5.85547-13.2402 5.66016-13.2832 5.46484-13.3262 5.27344-13.3887 5.08594-13.4707 4.89844-13.5527 4.60547-13.7031 4.20703-13.9219 3.94922-14.0625 3.74414-14.1719 3.5918-14.25 3.43945-14.3281 3.28125-14.3926 3.11719-14.4434 2.95312-14.4941 2.78125-14.5195 2.60156-14.5195 2.34375-14.5195 2.13086-14.4805 1.96289-14.4023 1.79492-14.3242 1.625-14.1875 1.45312-13.9922 1.28125-13.7969 1.10156-13.5391 0.914062-13.2188L0-13.6172C0.460937-14.3672 0.837891-14.8887 1.13086-15.1816 1.42383-15.4746 1.72266-15.6855 2.02734-15.8145 2.33203-15.9434 2.69531-16.0078 3.11719-16.0078 3.35156-16.0078 3.5625-15.9863 3.75-15.9434 3.9375-15.9004 4.11133-15.8437 4.27148-15.7734 4.43164-15.7031 4.70703-15.5625 5.09766-15.3516 5.37109-15.1953 5.5918-15.0742 5.75977-14.9883 5.92773-14.9023 6.09766-14.834 6.26953-14.7832 6.44141-14.7324 6.64062-14.707 6.86719-14.707 7.17187-14.707 7.44531-14.8027 7.6875-14.9941 7.92969-15.1855 8.19141-15.5234 8.47266-16.0078Z" transform="translate(874.634 512)"/><text font-family="Cambria Math,Cambria Math_MSFontService,sans-serif" font-weight="400" font-size="18" transform="translate(882.368 517)">1<tspan font-size="24" x="-27.2067" y="88">s</tspan></text><path d="M8.47266-16.0078 9.38672-15.6094C9.01953-14.9687 8.66992-14.4746 8.33789-14.127 8.00586-13.7793 7.6875-13.541 7.38281-13.4121 7.07812-13.2832 6.73047-13.2187 6.33984-13.2188 6.08203-13.2187 5.85547-13.2402 5.66016-13.2832 5.46484-13.3262 5.27344-13.3887 5.08594-13.4707 4.89844-13.5527 4.60547-13.7031 4.20703-13.9219 3.94922-14.0625 3.74414-14.1719 3.5918-14.25 3.43945-14.3281 3.28125-14.3926 3.11719-14.4434 2.95312-14.4941 2.78125-14.5195 2.60156-14.5195 2.34375-14.5195 2.13086-14.4805 1.96289-14.4023 1.79492-14.3242 1.625-14.1875 1.45312-13.9922 1.28125-13.7969 1.10156-13.5391 0.914062-13.2188L0-13.6172C0.460937-14.3672 0.837891-14.8887 1.13086-15.1816 1.42383-15.4746 1.72266-15.6855 2.02734-15.8145 2.33203-15.9434 2.69531-16.0078 3.11719-16.0078 3.35156-16.0078 3.5625-15.9863 3.75-15.9434 3.9375-15.9004 4.11133-15.8437 4.27148-15.7734 4.43164-15.7031 4.70703-15.5625 5.09766-15.3516 5.37109-15.1953 5.5918-15.0742 5.75977-14.9883 5.92773-14.9023 6.09766-14.834 6.26953-14.7832 6.44141-14.7324 6.64062-14.707 6.86719-14.707 7.17187-14.707 7.44531-14.8027 7.6875-14.9941 7.92969-15.1855 8.19141-15.5234 8.47266-16.0078Z" transform="translate(855.634 605)"/><text font-family="Cambria Math,Cambria Math_MSFontService,sans-serif" font-weight="400" font-size="18" transform="translate(864.941 610)">1</text><path d="M866.833 525.5 866.833 571.766 866.167 571.766 866.167 525.5ZM870.5 570.432 866.5 578.432 862.5 570.432Z" fill="#4472C4"/><text font-family="DengXian,DengXian_MSFontService,sans-serif" font-weight="400" font-size="24" transform="translate(786.222 558)">Sample</text><path d="M893 408C901.008 408 907.5 410.674 907.5 413.972L907.5 504.028C907.5 507.326 913.992 510 922 510 913.992 510 907.5 512.674 907.5 515.972L907.5 606.028C907.5 609.326 901.008 612 893 612" stroke="#4472C4" stroke-width="2" stroke-miterlimit="8" fill="none" fill-rule="evenodd"/><path d="M600.5 420.167 859.984 420.167 859.984 420.833 600.5 420.833ZM858.65 416.5 866.65 420.5 858.65 424.5Z" fill="#4472C4"/><text font-family="DengXian,DengXian_MSFontService,sans-serif" font-weight="400" font-size="24" transform="translate(931.223 512)">posterior</text></g></svg>