<svg width="1183" height="354" xmlns="http://www.w3.org/2000/svg" xmlns:xlink="http://www.w3.org/1999/xlink" overflow="hidden"><defs><clipPath id="clip0"><rect x="47" y="277" width="1183" height="354"/></clipPath></defs><g clip-path="url(#clip0)" transform="translate(-47 -277)"><text font-family="Cambria Math,Cambria Math_MSFontService,sans-serif" font-weight="400" font-size="24" transform="translate(56.6943 439)">ğ‘§<tspan font-size="18" x="11.08" y="5">0</tspan><tspan font-size="24" x="49.8427" y="179">ğ‘</tspan><tspan font-size="18" x="63.1761" y="183">0</tspan><tspan font-size="24" x="442.953" y="179">ğ‘</tspan><tspan font-size="18" x="455.733" y="184">1</tspan></text><path d="M248.5 419.667C248.5 416.261 251.261 413.5 254.667 413.5L369.333 413.5C372.739 413.5 375.5 416.261 375.5 419.667L375.5 444.333C375.5 447.739 372.739 450.5 369.333 450.5L254.667 450.5C251.261 450.5 248.5 447.739 248.5 444.333Z" stroke="#2F528F" stroke-width="1.33333" stroke-miterlimit="8" fill="none" fill-rule="evenodd"/><text font-family="DengXian,DengXian_MSFontService,sans-serif" font-weight="400" font-size="24" transform="translate(265.964 439)">obs_step</text><path d="M85.5001 432.167 241.399 432.167 241.399 432.833 85.5001 432.833ZM240.066 428.5 248.066 432.5 240.066 436.5Z" fill="#4472C4"/><path d="M375.504 432.167 433.367 432.903 433.358 433.57 375.496 432.833ZM432.08 429.22 440.028 433.322 431.978 437.219Z" fill="#4472C4"/><text font-family="Cambria Math,Cambria Math_MSFontService,sans-serif" font-weight="400" font-size="24" transform="translate(449.524 440)">ğ‘§<tspan font-size="18" x="10.5267" y="5">1</tspan></text><path d="M641.5 420.667C641.5 417.261 644.261 414.5 647.667 414.5L762.333 414.5C765.739 414.5 768.5 417.261 768.5 420.667L768.5 445.333C768.5 448.739 765.739 451.5 762.333 451.5L647.667 451.5C644.261 451.5 641.5 448.739 641.5 445.333Z" stroke="#2F528F" stroke-width="1.33333" stroke-miterlimit="8" fill="none" fill-rule="evenodd"/><text font-family="DengXian,DengXian_MSFontService,sans-serif" font-weight="400" font-size="24" transform="translate(658.794 440)">obs_step</text><path d="M478.5 432.167 634.399 432.167 634.399 432.833 478.5 432.833ZM633.066 428.5 641.066 432.5 633.066 436.5Z" fill="#4472C4"/><path d="M0.00656297-0.333269 35.0583 0.356994 35.0451 1.02353-0.00656297 0.333269ZM33.7974-3.33521 41.7171 0.821522 33.6399 4.66324Z" fill="#4472C4" transform="matrix(1 0 0 -1 768.5 433.322)"/><text font-family="Cambria Math,Cambria Math_MSFontService,sans-serif" font-weight="400" font-size="24" transform="translate(300.596 304)">ğ‘’<tspan font-size="18" x="10.58" y="5">1</tspan><tspan font-size="24" x="392.55" y="1">ğ‘’</tspan><tspan font-size="18" x="403.683" y="6">2</tspan></text><path d="M119.167 591.72 119.355 584.274 119.919 576.754 122.047 561.978 125.554 547.387 130.25 533.11 136.136 519.397 143.023 506.187 150.849 493.728 159.491 482.018 168.947 471.31 179.03 461.602 189.743 453.082 200.893 445.878 206.6 442.805 212.428 440.048 218.26 437.665 224.22 435.72 230.241 434.215 236.265 433.085 241.641 432.546 241.708 433.21 236.346 433.747 236.374 433.743 230.374 434.868 230.393 434.864 224.393 436.364 224.416 436.357 218.478 438.295 218.501 438.287 212.689 440.662 212.705 440.654 206.893 443.404 206.908 443.396 201.221 446.459 201.243 446.445 190.118 453.633 190.145 453.614 179.458 462.114 179.481 462.093 169.419 471.781 169.437 471.761 160 482.449 160.018 482.426 151.393 494.113 151.407 494.093 143.595 506.53 143.608 506.507 136.733 519.695 136.744 519.672 130.869 533.359 130.879 533.332 126.192 547.582 126.199 547.556 122.699 562.118 122.705 562.088 120.58 576.838 120.582 576.815 120.02 584.315 120.021 584.299 119.833 591.736ZM240.116 428.96 248.33 432.5 240.57 436.947Z" fill="#4472C4"/><path d="M512.167 591.72 512.355 584.274 512.919 576.754 515.047 561.978 518.554 547.387 523.25 533.11 529.136 519.397 536.023 506.187 543.849 493.728 552.491 482.018 561.947 471.31 572.03 461.602 582.743 453.082 593.893 445.878 599.6 442.805 605.428 440.048 611.26 437.665 617.22 435.72 623.241 434.215 629.265 433.085 634.641 432.546 634.708 433.21 629.346 433.747 629.374 433.743 623.374 434.868 623.393 434.864 617.393 436.364 617.416 436.357 611.478 438.295 611.501 438.287 605.689 440.662 605.705 440.654 599.893 443.404 599.908 443.396 594.221 446.459 594.243 446.445 583.118 453.633 583.145 453.614 572.458 462.114 572.481 462.093 562.419 471.781 562.437 471.761 553 482.449 553.018 482.426 544.393 494.113 544.407 494.093 536.595 506.53 536.608 506.507 529.733 519.695 529.744 519.672 523.869 533.359 523.879 533.332 519.192 547.582 519.199 547.556 515.699 562.118 515.705 562.088 513.58 576.838 513.582 576.815 513.02 584.315 513.021 584.299 512.833 591.736ZM633.116 428.96 641.33 432.5 633.57 436.947Z" fill="#4472C4"/><text font-family="Cambria Math,Cambria Math_MSFontService,sans-serif" font-weight="400" font-size="24" transform="translate(869.386 618)">ğ‘<tspan font-size="18" x="13.3333" y="4">2</tspan><tspan font-size="24" x="-49.8427" y="-179">ğ‘§</tspan><tspan font-size="18" x="-38.7628" y="-174">2</tspan></text><path d="M1011.5 419.667C1011.5 416.261 1014.26 413.5 1017.67 413.5L1132.33 413.5C1135.74 413.5 1138.5 416.261 1138.5 419.667L1138.5 444.333C1138.5 447.739 1135.74 450.5 1132.33 450.5L1017.67 450.5C1014.26 450.5 1011.5 447.739 1011.5 444.333Z" stroke="#2F528F" stroke-width="1.33333" stroke-miterlimit="8" fill="none" fill-rule="evenodd"/><text font-family="DengXian,DengXian_MSFontService,sans-serif" font-weight="400" font-size="24" transform="translate(1028.81 439)">obs_step</text><path d="M848.5 432.167 1004.4 432.167 1004.4 432.833 848.5 432.833ZM1003.07 428.5 1011.07 432.5 1003.07 436.5Z" fill="#4472C4"/><path d="M1138.51 432.167 1184.71 432.885 1184.7 433.551 1138.49 432.833ZM1183.43 429.198 1191.37 433.322 1183.31 437.197Z" fill="#4472C4"/><text font-family="Cambria Math,Cambria Math_MSFontService,sans-serif" font-weight="400" font-size="24" transform="translate(1063.17 304)">ğ‘’<tspan font-size="18" x="11.1333" y="5">3</tspan></text><path d="M882.167 591.72 882.355 584.274 882.919 576.754 885.047 561.978 888.554 547.387 893.25 533.11 899.136 519.397 906.023 506.187 913.849 493.728 922.491 482.018 931.947 471.31 942.03 461.602 952.743 453.082 963.893 445.878 969.6 442.805 975.428 440.048 981.26 437.665 987.22 435.72 993.241 434.215 999.265 433.085 1004.64 432.546 1004.71 433.21 999.346 433.747 999.374 433.743 993.374 434.868 993.393 434.864 987.393 436.364 987.416 436.357 981.478 438.295 981.501 438.287 975.689 440.662 975.705 440.654 969.893 443.404 969.908 443.396 964.221 446.459 964.243 446.445 953.118 453.633 953.145 453.614 942.458 462.114 942.481 462.093 932.419 471.781 932.437 471.761 923 482.449 923.018 482.426 914.393 494.113 914.407 494.093 906.595 506.53 906.608 506.507 899.733 519.695 899.744 519.672 893.869 533.359 893.879 533.332 889.192 547.582 889.199 547.556 885.699 562.118 885.705 562.088 883.58 576.838 883.582 576.815 883.02 584.315 883.021 584.299 882.833 591.736ZM1003.12 428.96 1011.33 432.5 1003.57 436.947Z" fill="#4472C4"/><text font-family="Cambria Math,Cambria Math_MSFontService,sans-serif" font-weight="400" font-size="24" transform="translate(425.355 382)">ğ‘§</text><path d="M-0.375-16.0078 0.539062-15.6094C0.242188-14.9687-0.0410156-14.4746-0.310547-14.127-0.580078-13.7793-0.837891-13.541-1.08398-13.4121-1.33008-13.2832-1.60938-13.2187-1.92188-13.2188-2.13281-13.2187-2.31641-13.2402-2.47266-13.2832-2.62891-13.3262-2.7832-13.3887-2.93555-13.4707-3.08789-13.5527-3.32422-13.7031-3.64453-13.9219-3.85547-14.0625-4.02148-14.1719-4.14258-14.25-4.26367-14.3281-4.39062-14.3926-4.52344-14.4434-4.65625-14.4941-4.79688-14.5195-4.94531-14.5195-5.14844-14.5195-5.31836-14.4805-5.45508-14.4023-5.5918-14.3242-5.73047-14.1875-5.87109-13.9922-6.01172-13.7969-6.15625-13.5391-6.30469-13.2188L-7.21875-13.6172C-6.84375-14.3672-6.53906-14.8887-6.30469-15.1816-6.07031-15.4746-5.83008-15.6855-5.58398-15.8145-5.33789-15.9434-5.04297-16.0078-4.69922-16.0078-4.51172-16.0078-4.3418-15.9863-4.18945-15.9434-4.03711-15.9004-3.89648-15.8437-3.76758-15.7734-3.63867-15.7031-3.41797-15.5625-3.10547-15.3516-2.87891-15.1953-2.69922-15.0742-2.56641-14.9883-2.43359-14.9023-2.29688-14.834-2.15625-14.7832-2.01562-14.7324-1.85547-14.707-1.67578-14.707-1.42578-14.707-1.20312-14.8027-1.00781-14.9941-0.8125-15.1855-0.601562-15.5234-0.375-16.0078Z" transform="translate(436.368 382)"/><text font-family="Cambria Math,Cambria Math_MSFontService,sans-serif" font-weight="400" font-size="18" transform="translate(435.881 387)">1<tspan font-size="24" x="383.662" y="-17">ğ‘§</tspan></text><path d="M-0.375-16.0078 0.539062-15.6094C0.242188-14.9687-0.0410156-14.4746-0.310547-14.127-0.580078-13.7793-0.837891-13.541-1.08398-13.4121-1.33008-13.2832-1.60938-13.2187-1.92188-13.2188-2.13281-13.2187-2.31641-13.2402-2.47266-13.2832-2.62891-13.3262-2.7832-13.3887-2.93555-13.4707-3.08789-13.5527-3.32422-13.7031-3.64453-13.9219-3.85547-14.0625-4.02148-14.1719-4.14258-14.25-4.26367-14.3281-4.39062-14.3926-4.52344-14.4434-4.65625-14.4941-4.79688-14.5195-4.94531-14.5195-5.14844-14.5195-5.31836-14.4805-5.45508-14.4023-5.5918-14.3242-5.73047-14.1875-5.87109-13.9922-6.01172-13.7969-6.15625-13.5391-6.30469-13.2188L-7.21875-13.6172C-6.84375-14.3672-6.53906-14.8887-6.30469-15.1816-6.07031-15.4746-5.83008-15.6855-5.58398-15.8145-5.33789-15.9434-5.04297-16.0078-4.69922-16.0078-4.51172-16.0078-4.3418-15.9863-4.18945-15.9434-4.03711-15.9004-3.89648-15.8437-3.76758-15.7734-3.63867-15.7031-3.41797-15.5625-3.10547-15.3516-2.87891-15.1953-2.69922-15.0742-2.56641-14.9883-2.43359-14.9023-2.29688-14.834-2.15625-14.7832-2.01562-14.7324-1.85547-14.707-1.67578-14.707-1.42578-14.707-1.20312-14.8027-1.00781-14.9941-0.8125-15.1855-0.601562-15.5234-0.375-16.0078Z" transform="translate(830.557 370)"/><text font-family="Cambria Math,Cambria Math_MSFontService,sans-serif" font-weight="400" font-size="18" transform="translate(830.623 375)">2<tspan font-size="24" x="363.184" y="-1">ğ‘§</tspan></text><path d="M-0.375-16.0078 0.539062-15.6094C0.242188-14.9687-0.0410156-14.4746-0.310547-14.127-0.580078-13.7793-0.837891-13.541-1.08398-13.4121-1.33008-13.2832-1.60938-13.2187-1.92188-13.2188-2.13281-13.2187-2.31641-13.2402-2.47266-13.2832-2.62891-13.3262-2.7832-13.3887-2.93555-13.4707-3.08789-13.5527-3.32422-13.7031-3.64453-13.9219-3.85547-14.0625-4.02148-14.1719-4.14258-14.25-4.26367-14.3281-4.39062-14.3926-4.52344-14.4434-4.65625-14.4941-4.79688-14.5195-4.94531-14.5195-5.14844-14.5195-5.31836-14.4805-5.45508-14.4023-5.5918-14.3242-5.73047-14.1875-5.87109-13.9922-6.01172-13.7969-6.15625-13.5391-6.30469-13.2188L-7.21875-13.6172C-6.84375-14.3672-6.53906-14.8887-6.30469-15.1816-6.07031-15.4746-5.83008-15.6855-5.58398-15.8145-5.33789-15.9434-5.04297-16.0078-4.69922-16.0078-4.51172-16.0078-4.3418-15.9863-4.18945-15.9434-4.03711-15.9004-3.89648-15.8437-3.76758-15.7734-3.63867-15.7031-3.41797-15.5625-3.10547-15.3516-2.87891-15.1953-2.69922-15.0742-2.56641-14.9883-2.43359-14.9023-2.29688-14.834-2.15625-14.7832-2.01562-14.7324-1.85547-14.707-1.67578-14.707-1.42578-14.707-1.20312-14.8027-1.00781-14.9941-0.8125-15.1855-0.601562-15.5234-0.375-16.0078Z" transform="translate(1204.82 374)"/><text font-family="Cambria Math,Cambria Math_MSFontService,sans-serif" font-weight="400" font-size="18" transform="translate(1204.89 379)">3</text><path d="M0.0547997-0.328798 3.85538 0.304632 7.62205 2.21989 11.0494 5.07601 14.147 8.80582 16.7994 13.1632 18.7553 18.0846 20.0799 23.3201 20.5197 28.6601 20.9572 34.0355 20.9482 33.9807 22.2607 39.1682 22.2453 39.1221 24.2453 43.9346 24.2251 43.894 26.7876 48.269 26.7546 48.2224 29.8171 51.8474 29.7531 51.789 34.2391 54.9159 33.8579 55.4628 29.3361 52.311 26.2269 48.6307 23.6384 44.2114 21.6203 39.3554 20.295 34.1173 19.8553 28.7149 19.4178 23.4024 19.4268 23.4568 18.1143 18.2693 18.1277 18.3106 16.1902 13.4356 16.2153 13.4858 13.5903 9.17332 13.6186 9.21297 10.5561 5.52547 10.5991 5.56857 7.2241 2.75607 7.28642 2.79713 3.59892 0.922128 3.6952 0.953798-0.0547997 0.328798ZM34.0776 50.973 40.3584 57.341 31.4955 58.5449Z" fill="#4472C4" transform="matrix(1 0 0 -1 375.5 431.841)"/><path d="M0.0321081-0.331783 2.00551-0.140809 4.01059 0.50599 7.89052 2.73218 11.4423 6.22054 14.6622 10.7663 17.3078 16.1205 19.3843 22.0355 20.7057 28.3906 21.2073 34.9119 21.7073 41.4119 21.7014 41.3696 23.0139 47.6821 23.002 47.6396 25.0645 53.5146 25.0488 53.4773 27.6738 58.7898 27.6457 58.743 30.8332 63.1805 30.7961 63.1372 34.2961 66.5747 34.1895 66.5043 35.6264 67.0963 35.3725 67.7127 33.8754 67.0959 30.3085 63.5927 27.0883 59.1097 24.4422 53.7545 22.3657 47.8395 21.0443 41.4844 20.5426 34.9631 20.0426 28.4631 20.0486 28.5054 18.7361 22.1929 18.748 22.2354 16.6855 16.3604 16.7012 16.3977 14.0762 11.0852 14.103 11.1302 10.9155 6.63017 10.9539 6.67532 7.45393 3.23782 7.52161 3.28912 3.70911 1.10162 3.77267 1.12974 1.83517 0.504736 1.90539 0.519283-0.0321081 0.331783ZM35.6991 63.1929 41.7171 69.8099 32.8127 70.654Z" fill="#4472C4" transform="matrix(1 0 0 -1 768.5 433.31)"/><path d="M0.0292979-0.332043 2.18153-0.14214 4.42986 0.436 8.62021 2.53118 12.5473 5.76155 16.0841 9.92989 19.0484 14.8494 21.3171 20.332 22.8299 26.257 23.3322 32.2848 23.8322 38.2848 23.8228 38.2292 25.3228 44.0417 25.3085 43.9988 27.5585 49.4988 27.5355 49.453 30.473 54.328 30.4417 54.2843 33.9417 58.4093 33.8993 58.3676 37.7743 61.5551 37.6786 61.5 39.702 62.2518 39.4698 62.8767 37.394 62.1055 33.4527 58.8634 29.9159 54.6951 26.9512 49.775 24.6829 44.2302 23.1702 38.3684 22.6678 32.3402 22.1678 26.3402 22.177 26.395 20.677 20.52 20.692 20.565 18.442 15.1274 18.4645 15.172 15.527 10.297 15.5583 10.3407 12.0583 6.21566 12.1007 6.25743 8.22574 3.06993 8.28843 3.11064 4.16343 1.04814 4.22949 1.07283 2.04199 0.510331 2.0957 0.519543-0.0292979 0.332043ZM39.4778 58.3493 45.9624 64.5096 37.1434 66.0011Z" fill="#4472C4" transform="matrix(1 0 0 -1 1138.5 432.01)"/><text font-family="Cambria Math,Cambria Math_MSFontService,sans-serif" font-weight="400" font-size="24" transform="translate(1200.71 440)">ğ‘§<tspan font-size="18" x="11.0801" y="5">3</tspan></text><path d="M312.833 316.5 312.833 406.512 312.167 406.512 312.167 316.5ZM316.5 405.179 312.5 413.179 308.5 405.179Z" fill="#4472C4"/><path d="M704.833 317.5 704.833 407.501 704.167 407.501 704.167 317.5ZM708.5 406.168 704.5 414.168 700.5 406.168Z" fill="#4472C4"/><path d="M1074.83 316.5 1074.83 406.512 1074.17 406.512 1074.17 316.5ZM1078.5 405.179 1074.5 413.179 1070.5 405.179Z" fill="#4472C4"/></g></svg>