<svg width="996" height="303" xmlns="http://www.w3.org/2000/svg" xmlns:xlink="http://www.w3.org/1999/xlink" overflow="hidden"><defs><clipPath id="clip0"><rect x="79" y="315" width="996" height="303"/></clipPath></defs><g clip-path="url(#clip0)" transform="translate(-79 -315)"><path d="M195.5 368.834C195.5 364.783 198.783 361.5 202.834 361.5L315.167 361.5C319.217 361.5 322.5 364.783 322.5 368.834L322.5 398.167C322.5 402.217 319.217 405.5 315.167 405.5L202.834 405.5C198.783 405.5 195.5 402.217 195.5 398.167Z" stroke="#2F528F" stroke-width="1.33333" stroke-miterlimit="8" fill="none" fill-rule="evenodd"/><text font-family="DengXian,DengXian_MSFontService,sans-serif" font-weight="400" font-size="24" transform="translate(211.613 390)">img_step</text><path d="M652.5 490C652.5 485.858 655.858 482.5 660 482.5L735 482.5C739.142 482.5 742.5 485.858 742.5 490L742.5 520C742.5 524.142 739.142 527.5 735 527.5L660 527.5C655.858 527.5 652.5 524.142 652.5 520Z" stroke="#2F528F" stroke-width="1.33333" stroke-miterlimit="8" fill="none" fill-rule="evenodd"/><text font-family="DengXian,DengXian_MSFontService,sans-serif" font-weight="400" font-size="24" transform="translate(674.322 512)">MLP</text><path d="M119 338C127.284 338 134 339.119 134 340.5L134 380C134 381.381 140.716 382.5 149 382.5 140.716 382.5 134 383.619 134 385L134 424.5C134 425.881 127.284 427 119 427" stroke="#4472C4" stroke-width="2" stroke-miterlimit="8" fill="none" fill-rule="evenodd"/><text font-family="Cambria Math,Cambria Math_MSFontService,sans-serif" font-weight="400" font-size="24" transform="translate(89.0719 343)">ğ‘<tspan font-size="18" x="13.3333" y="5">0</tspan><tspan font-size="24" x="0.046669" y="92">ğ‘§</tspan><tspan font-size="18" x="11.1267" y="97">0</tspan></text><path d="M149.5 383.167 188.569 383.167 188.569 383.833 149.5 383.833ZM187.236 379.5 195.236 383.5 187.236 387.5Z" fill="#4472C4"/><path d="M5.43281e-07-0.333333 57.7487-0.333239 57.7487 0.333427-5.43281e-07 0.333333ZM56.4153-3.99991 64.4153 0.000104987 56.4153 4.00009Z" fill="#4472C4" transform="matrix(1 0 0 -1 322.5 383.5)"/><path d="M533 424C522.507 424 514 422.582 514 420.833L514 390.167C514 388.418 505.493 387 495 387 505.493 387 514 385.582 514 383.833L514 353.167C514 351.418 522.507 350 533 350" stroke="#4472C4" stroke-width="2" stroke-miterlimit="8" fill="none" fill-rule="evenodd"/><text font-family="Cambria Math,Cambria Math_MSFontService,sans-serif" font-weight="400" font-size="24" transform="translate(537.205 353)">ğœ‡</text><path d="M8.47266-16.0078 9.38672-15.6094C9.01953-14.9687 8.66992-14.4746 8.33789-14.127 8.00586-13.7793 7.6875-13.541 7.38281-13.4121 7.07812-13.2832 6.73047-13.2187 6.33984-13.2188 6.08203-13.2187 5.85547-13.2402 5.66016-13.2832 5.46484-13.3262 5.27344-13.3887 5.08594-13.4707 4.89844-13.5527 4.60547-13.7031 4.20703-13.9219 3.94922-14.0625 3.74414-14.1719 3.5918-14.25 3.43945-14.3281 3.28125-14.3926 3.11719-14.4434 2.95312-14.4941 2.78125-14.5195 2.60156-14.5195 2.34375-14.5195 2.13086-14.4805 1.96289-14.4023 1.79492-14.3242 1.625-14.1875 1.45312-13.9922 1.28125-13.7969 1.10156-13.5391 0.914062-13.2188L0-13.6172C0.460937-14.3672 0.837891-14.8887 1.13086-15.1816 1.42383-15.4746 1.72266-15.6855 2.02734-15.8145 2.33203-15.9434 2.69531-16.0078 3.11719-16.0078 3.35156-16.0078 3.5625-15.9863 3.75-15.9434 3.9375-15.9004 4.11133-15.8437 4.27148-15.7734 4.43164-15.7031 4.70703-15.5625 5.09766-15.3516 5.37109-15.1953 5.5918-15.0742 5.75977-14.9883 5.92773-14.9023 6.09766-14.834 6.26953-14.7832 6.44141-14.7324 6.64062-14.707 6.86719-14.707 7.17187-14.707 7.44531-14.8027 7.6875-14.9941 7.92969-15.1855 8.19141-15.5234 8.47266-16.0078Z" transform="translate(540.812 353)"/><text font-family="Cambria Math,Cambria Math_MSFontService,sans-serif" font-weight="400" font-size="18" transform="translate(549.819 358)">1<tspan font-size="24" x="11.16" y="-5">,</tspan><tspan font-size="24" x="20.16" y="-5">ğœ</tspan></text><path d="M8.47266-16.0078 9.38672-15.6094C9.01953-14.9687 8.66992-14.4746 8.33789-14.127 8.00586-13.7793 7.6875-13.541 7.38281-13.4121 7.07812-13.2832 6.73047-13.2187 6.33984-13.2188 6.08203-13.2187 5.85547-13.2402 5.66016-13.2832 5.46484-13.3262 5.27344-13.3887 5.08594-13.4707 4.89844-13.5527 4.60547-13.7031 4.20703-13.9219 3.94922-14.0625 3.74414-14.1719 3.5918-14.25 3.43945-14.3281 3.28125-14.3926 3.11719-14.4434 2.95312-14.4941 2.78125-14.5195 2.60156-14.5195 2.34375-14.5195 2.13086-14.4805 1.96289-14.4023 1.79492-14.3242 1.625-14.1875 1.45312-13.9922 1.28125-13.7969 1.10156-13.5391 0.914062-13.2188L0-13.6172C0.460937-14.3672 0.837891-14.8887 1.13086-15.1816 1.42383-15.4746 1.72266-15.6855 2.02734-15.8145 2.33203-15.9434 2.69531-16.0078 3.11719-16.0078 3.35156-16.0078 3.5625-15.9863 3.75-15.9434 3.9375-15.9004 4.11133-15.8437 4.27148-15.7734 4.43164-15.7031 4.70703-15.5625 5.09766-15.3516 5.37109-15.1953 5.5918-15.0742 5.75977-14.9883 5.92773-14.9023 6.09766-14.834 6.26953-14.7832 6.44141-14.7324 6.64062-14.707 6.86719-14.707 7.17187-14.707 7.44531-14.8027 7.6875-14.9941 7.92969-15.1855 8.19141-15.5234 8.47266-16.0078Z" transform="translate(574.052 353)"/><text font-family="Cambria Math,Cambria Math_MSFontService,sans-serif" font-weight="400" font-size="18" transform="translate(581.785 358)">1<tspan font-size="24" x="-28.4849" y="71">â„</tspan></text><path d="M8.55469-15.9141 9.38672-15.4336C9.01953-14.8789 8.66992-14.4492 8.33789-14.1445 8.00586-13.8398 7.6875-13.6309 7.38281-13.5176 7.07812-13.4043 6.73047-13.3477 6.33984-13.3477 6.08203-13.3477 5.85547-13.3633 5.66016-13.3945 5.46484-13.4258 5.27344-13.4707 5.08594-13.5293 4.89844-13.5879 4.60547-13.6992 4.20703-13.8633 3.94922-13.9648 3.74414-14.0449 3.5918-14.1035 3.43945-14.1621 3.28125-14.209 3.11719-14.2441 2.95312-14.2793 2.78125-14.2969 2.60156-14.2969 2.34375-14.2969 2.13086-14.2676 1.96289-14.209 1.79492-14.1504 1.625-14.0508 1.45312-13.9102 1.28125-13.7695 1.05859-13.5391 0.785156-13.2188L0-13.6992C0.460937-14.3555 0.837891-14.8105 1.13086-15.0645 1.42383-15.3184 1.72266-15.502 2.02734-15.6152 2.33203-15.7285 2.69531-15.7852 3.11719-15.7852 3.35156-15.7852 3.5625-15.7695 3.75-15.7383 3.9375-15.707 4.11133-15.666 4.27148-15.6152 4.43164-15.5645 4.70703-15.4609 5.09766-15.3047 5.37109-15.1953 5.5918-15.1074 5.75977-15.041 5.92773-14.9746 6.09766-14.9238 6.26953-14.8887 6.44141-14.8535 6.64062-14.8359 6.86719-14.8359 7.17187-14.8359 7.44531-14.9062 7.6875-15.0469 7.92969-15.1875 8.21875-15.4766 8.55469-15.9141Z" transform="translate(555.874 424)"/><text font-family="Cambria Math,Cambria Math_MSFontService,sans-serif" font-weight="400" font-size="18" transform="translate(566.081 434)">1<tspan font-family="DengXian,DengXian_MSFontService,sans-serif" font-size="24" x="-173.976" y="-44">(prior </tspan><tspan font-size="24" x="-108.483" y="-44">ğ‘§</tspan></text><path d="M-0.375-16.0078 0.539062-15.6094C0.242188-14.9687-0.0410156-14.4746-0.310547-14.127-0.580078-13.7793-0.837891-13.541-1.08398-13.4121-1.33008-13.2832-1.60938-13.2187-1.92188-13.2188-2.13281-13.2187-2.31641-13.2402-2.47266-13.2832-2.62891-13.3262-2.7832-13.3887-2.93555-13.4707-3.08789-13.5527-3.32422-13.7031-3.64453-13.9219-3.85547-14.0625-4.02148-14.1719-4.14258-14.25-4.26367-14.3281-4.39062-14.3926-4.52344-14.4434-4.65625-14.4941-4.79688-14.5195-4.94531-14.5195-5.14844-14.5195-5.31836-14.4805-5.45508-14.4023-5.5918-14.3242-5.73047-14.1875-5.87109-13.9922-6.01172-13.7969-6.15625-13.5391-6.30469-13.2188L-7.21875-13.6172C-6.84375-14.3672-6.53906-14.8887-6.30469-15.1816-6.07031-15.4746-5.83008-15.6855-5.58398-15.8145-5.33789-15.9434-5.04297-16.0078-4.69922-16.0078-4.51172-16.0078-4.3418-15.9863-4.18945-15.9434-4.03711-15.9004-3.89648-15.8437-3.76758-15.7734-3.63867-15.7031-3.41797-15.5625-3.10547-15.3516-2.87891-15.1953-2.69922-15.0742-2.56641-14.9883-2.43359-14.9023-2.29688-14.834-2.15625-14.7832-2.01562-14.7324-1.85547-14.707-1.67578-14.707-1.42578-14.707-1.20312-14.8027-1.00781-14.9941-0.8125-15.1855-0.601562-15.5234-0.375-16.0078Z" transform="translate(468.611 390)"/><text font-family="Cambria Math,Cambria Math_MSFontService,sans-serif" font-weight="400" font-size="18" transform="translate(468.124 395)">1<tspan font-family="DengXian,DengXian_MSFontService,sans-serif" font-size="24" x="13.8133" y="-5">)</tspan><tspan font-size="24" x="-294.533" y="117">ğ‘’</tspan><tspan font-size="18" x="-283.953" y="122">1</tspan></text><path d="M205.5 505.167 645.55 505.167 645.55 505.833 205.5 505.833ZM644.217 501.5 652.217 505.5 644.217 509.5Z" fill="#4472C4"/><path d="M600.533 421.168 603.062 421.421 605.555 422.124 607.976 423.271 610.394 424.862 614.874 429.027 618.909 434.448 622.243 440.865 624.883 448.031 626.581 455.702 627.145 463.539 627.708 471.351 627.701 471.303 629.388 478.928 629.375 478.884 632 485.946 631.983 485.909 635.296 492.284 635.267 492.239 639.267 497.614 639.227 497.568 643.664 501.693 643.593 501.643 646.8 503.332 646.489 503.922 643.243 502.212 638.751 498.036 634.717 492.615 631.382 486.198 628.742 479.095 627.044 471.423 626.48 463.586 625.918 455.774 625.925 455.822 624.237 448.197 624.25 448.24 621.625 441.115 621.642 441.154 618.329 434.779 618.358 434.824 614.358 429.449 614.398 429.494 609.961 425.369 610.004 425.404 607.629 423.841 607.67 423.864 605.295 422.739 605.347 422.758 602.91 422.071 602.967 422.082 600.467 421.832ZM646.523 499.412 653.028 505.551 644.214 507.072Z" fill="#4472C4"/><path d="M742.503 505.167 820.742 505.765 820.737 506.432 742.497 505.833ZM819.436 502.089 827.406 506.15 819.375 510.088Z" fill="#4472C4"/><text font-family="Cambria Math,Cambria Math_MSFontService,sans-serif" font-weight="400" font-size="24" transform="translate(837.788 512)">ğœ‡<tspan font-size="18" x="12.6133" y="5">1</tspan><tspan font-size="24" x="23.7733" y="0">,</tspan><tspan font-size="24" x="32.7733" y="0">ğœ</tspan><tspan font-size="18" x="44.58" y="5">1</tspan><tspan font-size="24" x="17.2532" y="93">ğ‘ </tspan><tspan font-size="18" x="27.2798" y="98">1</tspan></text><path d="M866.833 525.5 866.833 571.766 866.167 571.766 866.167 525.5ZM870.5 570.432 866.5 578.432 862.5 570.432Z" fill="#4472C4"/><text font-family="DengXian,DengXian_MSFontService,sans-serif" font-weight="400" font-size="24" transform="translate(786.222 558)">Sample</text><path d="M893 408C901.008 408 907.5 410.674 907.5 413.972L907.5 504.028C907.5 507.326 913.992 510 922 510 913.992 510 907.5 512.674 907.5 515.972L907.5 606.028C907.5 609.326 901.008 612 893 612" stroke="#4472C4" stroke-width="2" stroke-miterlimit="8" fill="none" fill-rule="evenodd"/><path d="M0.000809439-0.333332 259.484 0.296777 259.483 0.963442-0.000809439 0.333332ZM258.16-3.37312 266.15 0.646299 258.141 4.62686Z" fill="#4472C4" transform="matrix(1 0 0 -1 600.5 421.146)"/><text font-family="DengXian,DengXian_MSFontService,sans-serif" font-weight="400" font-size="24" transform="translate(931.223 512)">posterior <tspan font-family="Cambria Math,Cambria Math_MSFontService,sans-serif" font-size="24" x="99.5" y="0">ğ‘§</tspan><tspan font-family="Cambria Math,Cambria Math_MSFontService,sans-serif" font-size="18" x="110.027" y="5">1</tspan></text></g></svg>