<svg width="652" height="223" xmlns="http://www.w3.org/2000/svg" xmlns:xlink="http://www.w3.org/1999/xlink" overflow="hidden"><defs><clipPath id="clip0"><rect x="201" y="352" width="652" height="223"/></clipPath></defs><g clip-path="url(#clip0)" transform="translate(-201 -352)"><path d="M482.5 362.333C482.5 358.007 486.007 354.5 490.333 354.5L582.667 354.5C586.993 354.5 590.5 358.007 590.5 362.333L590.5 393.667C590.5 397.993 586.993 401.5 582.667 401.5L490.333 401.5C486.007 401.5 482.5 397.993 482.5 393.667Z" stroke="#2F528F" stroke-width="1.33333" stroke-miterlimit="8" fill="none" fill-rule="evenodd"/><text font-family="DengXian,DengXian_MSFontService,sans-serif" font-weight="400" font-size="24" transform="translate(494.234 385)">GRUCell</text><path d="M304.5 496.834C304.5 492.783 307.783 489.5 311.834 489.5L387.167 489.5C391.217 489.5 394.5 492.783 394.5 496.834L394.5 526.167C394.5 530.217 391.217 533.5 387.167 533.5L311.834 533.5C307.783 533.5 304.5 530.217 304.5 526.167Z" stroke="#2F528F" stroke-width="1.33333" stroke-miterlimit="8" fill="none" fill-rule="evenodd"/><text font-family="DengXian,DengXian_MSFontService,sans-serif" font-weight="400" font-size="24" transform="translate(326.549 518)">MLP</text><path d="M656.5 496.834C656.5 492.783 659.783 489.5 663.833 489.5L738.167 489.5C742.217 489.5 745.5 492.783 745.5 496.834L745.5 526.167C745.5 530.217 742.217 533.5 738.167 533.5L663.833 533.5C659.783 533.5 656.5 530.217 656.5 526.167Z" stroke="#2F528F" stroke-width="1.33333" stroke-miterlimit="8" fill="none" fill-rule="evenodd"/><text font-family="DengXian,DengXian_MSFontService,sans-serif" font-weight="400" font-size="24" transform="translate(677.945 518)">MLP</text><path d="M289.5 377.167 475.739 377.167 475.739 377.833 289.5 377.833ZM474.406 373.5 482.406 377.5 474.406 381.5Z" fill="#4472C4"/><path d="M590.5 377.167 800.739 377.167 800.739 377.833 590.5 377.833ZM799.406 373.5 807.406 377.5 799.406 381.5Z" fill="#4472C4"/><path d="M0.0301786-0.331964 4.18505 0.0457513 8.30052 1.18542 12.4074 3.01774 16.3173 5.47719 20.1581 8.49939 23.8071 12.0855 27.2637 16.1706 30.4657 20.6911 33.4791 25.5878 36.1148 30.8593 38.4986 36.3795 40.5067 42.2157 42.0751 48.1758 43.267 54.3232 44.02 60.5357 44.2706 66.7992 44.5206 73.0492 44.5184 73.0224 45.2684 79.2099 45.2647 79.1866 46.4522 85.3116 46.4474 85.2902 48.0099 91.2277 48.0027 91.204 50.0027 97.0165 49.9935 96.9929 52.3685 102.493 52.3592 102.473 55.0467 107.723 55.0355 107.703 57.973 112.578 57.9595 112.557 61.147 117.057 61.1295 117.035 64.567 121.097 64.5461 121.075 68.1711 124.637 68.1436 124.613 71.9561 127.613 71.9255 127.592 75.863 130.029 75.8251 130.009 79.8251 131.821 79.7508 131.798 81.3459 132.106 81.2194 132.761 79.5857 132.445 75.5303 130.607 71.5586 128.149 67.7169 125.126 64.0679 121.539 60.6113 117.454 57.4084 112.933 54.4585 108.037 51.7608 102.767 49.3764 97.2455 47.3683 91.4093 45.7998 85.4492 44.608 79.3018 43.855 73.0893 43.6044 66.8258 43.3544 60.5758 43.3566 60.6026 42.6066 54.4151 42.6103 54.4384 41.4228 48.3134 41.4276 48.3348 39.8651 42.3973 39.8723 42.421 37.8723 36.6085 37.8815 36.6321 35.5065 31.1321 35.5144 31.1491 32.8894 25.8991 32.9036 25.9247 29.9036 21.0497 29.9155 21.0677 26.728 16.5677 26.7455 16.5903 23.308 12.5278 23.3289 12.5502 19.7039 8.98774 19.7314 9.01196 15.9189 6.01196 15.9475 6.03215 12.0725 3.59465 12.1142 3.61691 8.05169 1.80441 8.09854 1.82124 4.03604 0.696243 4.09482 0.706964-0.0301786 0.331964ZM80.6602 128.263 87.8491 133.585 79.2785 136.143Z" fill="#4472C4" transform="matrix(1 0 0 -1 394.5 511.085)"/><path d="M590.541 377.169 593.642 377.549 596.708 378.699 599.756 380.54 602.729 383.007 605.568 386.035 608.275 389.623 610.851 393.708 613.237 398.229 615.433 403.122 617.442 408.395 620.638 419.739 622.706 431.832 623.27 438.042 623.458 444.303 623.646 450.553 623.645 450.532 624.207 456.72 624.204 456.694 626.266 468.756 626.258 468.722 629.446 480.035 629.437 480.006 631.437 485.256 631.429 485.239 633.617 490.114 633.607 490.094 635.982 494.594 635.969 494.572 638.532 498.635 638.516 498.612 641.204 502.174 641.181 502.147 643.993 505.147 643.963 505.119 646.9 507.556 646.829 507.511 649.497 508.76 649.214 509.363 646.508 508.096 643.521 505.618 640.682 502.59 637.976 499.002 635.399 494.917 633.013 490.396 630.817 485.503 628.808 480.23 625.612 468.886 623.544 456.793 622.98 450.583 622.792 444.323 622.604 438.073 622.606 438.093 622.043 431.905 622.047 431.931 619.984 419.869 619.992 419.903 616.804 408.59 616.814 408.619 614.814 403.369 614.821 403.387 612.633 398.512 612.643 398.531 610.268 394.031 610.281 394.053 607.718 389.99 607.734 390.013 605.046 386.451 605.069 386.478 602.257 383.478 602.287 383.507 599.35 381.069 599.39 381.098 596.39 379.285 596.445 379.312 593.445 378.187 593.522 378.206 590.46 377.831ZM649.299 504.846 655.708 511.085 646.871 512.468Z" fill="#4472C4"/><text font-family="Cambria Math,Cambria Math_MSFontService,sans-serif" font-weight="400" font-size="24" transform="translate(256.845 385)">ℎ<tspan font-size="18" x="13.3333" y="5">0</tspan><tspan font-size="24" x="560.151" y="0">ℎ</tspan><tspan font-size="18" x="572.931" y="5">1</tspan></text><path d="M745.5 511.167 766.456 511.167 766.456 511.833 745.5 511.833ZM765.123 507.5 773.123 511.5 765.123 515.5Z" fill="#4472C4"/><path d="M803 547C794.716 547 788 545.881 788 544.5L788 513C788 511.619 781.284 510.5 773 510.5 781.284 510.5 788 509.381 788 508L788 476.5C788 475.119 794.716 474 803 474" stroke="#4472C4" stroke-width="2" stroke-miterlimit="8" fill="none" fill-rule="evenodd"/><text font-family="Cambria Math,Cambria Math_MSFontService,sans-serif" font-weight="400" font-size="24" transform="translate(810.416 477)">𝜇<tspan font-size="18" x="12.6133" y="5">1</tspan><tspan font-size="24" x="3.12427" y="74">𝜎</tspan><tspan font-size="18" x="14.9309" y="79">1</tspan></text><path d="M271.5 511.167 297.89 511.167 297.89 511.834 271.5 511.833ZM296.557 507.5 304.557 511.5 296.557 515.5Z" fill="#4472C4"/><path d="M241 466C249.284 466 256 467.119 256 468.5L256 508C256 509.381 262.716 510.5 271 510.5 262.716 510.5 256 511.619 256 513L256 552.5C256 553.881 249.284 555 241 555" stroke="#4472C4" stroke-width="2" stroke-miterlimit="8" fill="none" fill-rule="evenodd"/><text font-family="Cambria Math,Cambria Math_MSFontService,sans-serif" font-weight="400" font-size="24" transform="translate(211.336 471)">𝑎<tspan font-size="18" x="13.3333" y="5">0</tspan><tspan font-size="24" x="0.29332" y="92">𝑠</tspan><tspan font-size="18" x="10.8733" y="97">0</tspan></text></g></svg>