<svg width="876" height="303" xmlns="http://www.w3.org/2000/svg" xmlns:xlink="http://www.w3.org/1999/xlink" overflow="hidden"><defs><clipPath id="clip0"><rect x="163" y="315" width="876" height="303"/></clipPath></defs><g clip-path="url(#clip0)" transform="translate(-163 -315)"><path d="M279.5 368.834C279.5 364.783 282.783 361.5 286.834 361.5L399.167 361.5C403.217 361.5 406.5 364.783 406.5 368.834L406.5 398.167C406.5 402.217 403.217 405.5 399.167 405.5L286.834 405.5C282.783 405.5 279.5 402.217 279.5 398.167Z" stroke="#2F528F" stroke-width="1.33333" stroke-miterlimit="8" fill="none" fill-rule="evenodd"/><text font-family="DengXian,DengXian_MSFontService,sans-serif" font-weight="400" font-size="24" transform="translate(295.84 390)">img_step</text><path d="M652.5 490C652.5 485.858 655.858 482.5 660 482.5L735 482.5C739.142 482.5 742.5 485.858 742.5 490L742.5 520C742.5 524.142 739.142 527.5 735 527.5L660 527.5C655.858 527.5 652.5 524.142 652.5 520Z" stroke="#2F528F" stroke-width="1.33333" stroke-miterlimit="8" fill="none" fill-rule="evenodd"/><text font-family="DengXian,DengXian_MSFontService,sans-serif" font-weight="400" font-size="24" transform="translate(674.322 512)">MLP</text><path d="M203 338C211.284 338 218 339.119 218 340.5L218 380C218 381.381 224.716 382.5 233 382.5 224.716 382.5 218 383.619 218 385L218 424.5C218 425.881 211.284 427 203 427" stroke="#4472C4" stroke-width="2" stroke-miterlimit="8" fill="none" fill-rule="evenodd"/><text font-family="Cambria Math,Cambria Math_MSFontService,sans-serif" font-weight="400" font-size="24" transform="translate(173.298 343)">ğ‘<tspan font-size="18" x="13.3333" y="5">0</tspan><tspan font-size="24" x="0.0466614" y="92">ğ‘§</tspan><tspan font-size="18" x="11.1267" y="97">0</tspan></text><path d="M233.5 383.167 272.569 383.167 272.569 383.833 233.5 383.833ZM271.236 379.5 279.236 383.5 271.236 387.5Z" fill="#4472C4"/><path d="M8.09228e-07-0.333333 36.579-0.333245 36.579 0.333422-8.09228e-07 0.333333ZM35.2457-3.99991 43.2457 0.000104987 35.2457 4.00009Z" fill="#4472C4" transform="matrix(1 0 0 -1 406.5 383.5)"/><path d="M548 424C539.716 424 533 422.881 533 421.5L533 389.5C533 388.119 526.284 387 518 387 526.284 387 533 385.881 533 384.5L533 352.5C533 351.119 539.716 350 548 350" stroke="#4472C4" stroke-width="2" stroke-miterlimit="8" fill="none" fill-rule="evenodd"/><text font-family="Cambria Math,Cambria Math_MSFontService,sans-serif" font-weight="400" font-size="24" transform="translate(552.996 353)">ğœ‡</text><path d="M8.47266-16.0078 9.38672-15.6094C9.01953-14.9687 8.66992-14.4746 8.33789-14.127 8.00586-13.7793 7.6875-13.541 7.38281-13.4121 7.07812-13.2832 6.73047-13.2187 6.33984-13.2188 6.08203-13.2187 5.85547-13.2402 5.66016-13.2832 5.46484-13.3262 5.27344-13.3887 5.08594-13.4707 4.89844-13.5527 4.60547-13.7031 4.20703-13.9219 3.94922-14.0625 3.74414-14.1719 3.5918-14.25 3.43945-14.3281 3.28125-14.3926 3.11719-14.4434 2.95312-14.4941 2.78125-14.5195 2.60156-14.5195 2.34375-14.5195 2.13086-14.4805 1.96289-14.4023 1.79492-14.3242 1.625-14.1875 1.45312-13.9922 1.28125-13.7969 1.10156-13.5391 0.914062-13.2188L0-13.6172C0.460937-14.3672 0.837891-14.8887 1.13086-15.1816 1.42383-15.4746 1.72266-15.6855 2.02734-15.8145 2.33203-15.9434 2.69531-16.0078 3.11719-16.0078 3.35156-16.0078 3.5625-15.9863 3.75-15.9434 3.9375-15.9004 4.11133-15.8437 4.27148-15.7734 4.43164-15.7031 4.70703-15.5625 5.09766-15.3516 5.37109-15.1953 5.5918-15.0742 5.75977-14.9883 5.92773-14.9023 6.09766-14.834 6.26953-14.7832 6.44141-14.7324 6.64062-14.707 6.86719-14.707 7.17187-14.707 7.44531-14.8027 7.6875-14.9941 7.92969-15.1855 8.19141-15.5234 8.47266-16.0078Z" transform="translate(556.602 353)"/><text font-family="Cambria Math,Cambria Math_MSFontService,sans-serif" font-weight="400" font-size="18" transform="translate(565.609 358)">1<tspan font-size="24" x="11.16" y="-5">,</tspan><tspan font-size="24" x="20.16" y="-5">ğœ</tspan></text><path d="M8.47266-16.0078 9.38672-15.6094C9.01953-14.9687 8.66992-14.4746 8.33789-14.127 8.00586-13.7793 7.6875-13.541 7.38281-13.4121 7.07812-13.2832 6.73047-13.2187 6.33984-13.2188 6.08203-13.2187 5.85547-13.2402 5.66016-13.2832 5.46484-13.3262 5.27344-13.3887 5.08594-13.4707 4.89844-13.5527 4.60547-13.7031 4.20703-13.9219 3.94922-14.0625 3.74414-14.1719 3.5918-14.25 3.43945-14.3281 3.28125-14.3926 3.11719-14.4434 2.95312-14.4941 2.78125-14.5195 2.60156-14.5195 2.34375-14.5195 2.13086-14.4805 1.96289-14.4023 1.79492-14.3242 1.625-14.1875 1.45312-13.9922 1.28125-13.7969 1.10156-13.5391 0.914062-13.2188L0-13.6172C0.460937-14.3672 0.837891-14.8887 1.13086-15.1816 1.42383-15.4746 1.72266-15.6855 2.02734-15.8145 2.33203-15.9434 2.69531-16.0078 3.11719-16.0078 3.35156-16.0078 3.5625-15.9863 3.75-15.9434 3.9375-15.9004 4.11133-15.8437 4.27148-15.7734 4.43164-15.7031 4.70703-15.5625 5.09766-15.3516 5.37109-15.1953 5.5918-15.0742 5.75977-14.9883 5.92773-14.9023 6.09766-14.834 6.26953-14.7832 6.44141-14.7324 6.64062-14.707 6.86719-14.707 7.17187-14.707 7.44531-14.8027 7.6875-14.9941 7.92969-15.1855 8.19141-15.5234 8.47266-16.0078Z" transform="translate(589.842 353)"/><text font-family="Cambria Math,Cambria Math_MSFontService,sans-serif" font-weight="400" font-size="18" transform="translate(597.576 358)">1<tspan font-size="24" x="-36.7491" y="71">â„</tspan></text><path d="M8.55469-15.9141 9.38672-15.4336C9.01953-14.8789 8.66992-14.4492 8.33789-14.1445 8.00586-13.8398 7.6875-13.6309 7.38281-13.5176 7.07812-13.4043 6.73047-13.3477 6.33984-13.3477 6.08203-13.3477 5.85547-13.3633 5.66016-13.3945 5.46484-13.4258 5.27344-13.4707 5.08594-13.5293 4.89844-13.5879 4.60547-13.6992 4.20703-13.8633 3.94922-13.9648 3.74414-14.0449 3.5918-14.1035 3.43945-14.1621 3.28125-14.209 3.11719-14.2441 2.95312-14.2793 2.78125-14.2969 2.60156-14.2969 2.34375-14.2969 2.13086-14.2676 1.96289-14.209 1.79492-14.1504 1.625-14.0508 1.45312-13.9102 1.28125-13.7695 1.05859-13.5391 0.785156-13.2188L0-13.6992C0.460937-14.3555 0.837891-14.8105 1.13086-15.0645 1.42383-15.3184 1.72266-15.502 2.02734-15.6152 2.33203-15.7285 2.69531-15.7852 3.11719-15.7852 3.35156-15.7852 3.5625-15.7695 3.75-15.7383 3.9375-15.707 4.11133-15.666 4.27148-15.6152 4.43164-15.5645 4.70703-15.4609 5.09766-15.3047 5.37109-15.1953 5.5918-15.1074 5.75977-15.041 5.92773-14.9746 6.09766-14.9238 6.26953-14.8887 6.44141-14.8535 6.64062-14.8359 6.86719-14.8359 7.17187-14.8359 7.44531-14.9062 7.6875-15.0469 7.92969-15.1875 8.21875-15.4766 8.55469-15.9141Z" transform="translate(563.4 424)"/><text font-family="Cambria Math,Cambria Math_MSFontService,sans-serif" font-weight="400" font-size="18" transform="translate(573.607 434)">1<tspan font-family="DengXian,DengXian_MSFontService,sans-serif" font-size="24" x="-114.764" y="-44">prior</tspan><tspan font-size="24" x="-400.289" y="78">ğ‘’</tspan><tspan font-size="18" x="-389.155" y="83">0</tspan></text><path d="M205.5 505.167 645.55 505.167 645.55 505.833 205.5 505.833ZM644.217 501.5 652.217 505.5 644.217 509.5Z" fill="#4472C4"/><path d="M600.533 421.168 603.062 421.421 605.555 422.124 607.976 423.271 610.394 424.862 614.874 429.027 618.909 434.448 622.243 440.865 624.883 448.031 626.581 455.702 627.145 463.539 627.708 471.351 627.701 471.303 629.388 478.928 629.375 478.884 632 485.946 631.983 485.909 635.296 492.284 635.267 492.239 639.267 497.614 639.227 497.568 643.664 501.693 643.593 501.643 646.8 503.332 646.489 503.922 643.243 502.212 638.751 498.036 634.717 492.615 631.382 486.198 628.742 479.095 627.044 471.423 626.48 463.586 625.918 455.774 625.925 455.822 624.237 448.197 624.25 448.24 621.625 441.115 621.642 441.154 618.329 434.779 618.358 434.824 614.358 429.449 614.398 429.494 609.961 425.369 610.004 425.404 607.629 423.841 607.67 423.864 605.295 422.739 605.347 422.758 602.91 422.071 602.967 422.082 600.467 421.832ZM646.523 499.412 653.028 505.551 644.214 507.072Z" fill="#4472C4"/><path d="M742.503 505.167 820.742 505.765 820.737 506.432 742.497 505.833ZM819.436 502.089 827.406 506.15 819.375 510.088Z" fill="#4472C4"/><text font-family="Cambria Math,Cambria Math_MSFontService,sans-serif" font-weight="400" font-size="24" transform="translate(837.788 512)">ğœ‡<tspan font-size="18" x="12.6133" y="5">1</tspan><tspan font-size="24" x="23.7733" y="0">,</tspan><tspan font-size="24" x="32.7733" y="0">ğœ</tspan><tspan font-size="18" x="44.58" y="5">1</tspan><tspan font-size="24" x="17.2532" y="93">ğ‘ </tspan><tspan font-size="18" x="27.2798" y="98">1</tspan></text><path d="M866.833 525.5 866.833 571.766 866.167 571.766 866.167 525.5ZM870.5 570.432 866.5 578.432 862.5 570.432Z" fill="#4472C4"/><text font-family="DengXian,DengXian_MSFontService,sans-serif" font-weight="400" font-size="24" transform="translate(786.222 558)">Sample</text><path d="M893 408C901.008 408 907.5 410.674 907.5 413.972L907.5 504.028C907.5 507.326 913.992 510 922 510 913.992 510 907.5 512.674 907.5 515.972L907.5 606.028C907.5 609.326 901.008 612 893 612" stroke="#4472C4" stroke-width="2" stroke-miterlimit="8" fill="none" fill-rule="evenodd"/><path d="M0.000809439-0.333332 259.484 0.296777 259.483 0.963442-0.000809439 0.333332ZM258.16-3.37312 266.15 0.646299 258.141 4.62686Z" fill="#4472C4" transform="matrix(1 0 0 -1 600.5 421.146)"/><text font-family="DengXian,DengXian_MSFontService,sans-serif" font-weight="400" font-size="24" transform="translate(931.223 512)">posterior</text></g></svg>